<svg xmlns="http://www.w3.org/2000/svg" width="300" height="225" shape-rendering="auto" image-rendering="optimizeQuality">
<circle cx="150" cy="112.5" r="98.199" fill="#FFFFFF" />
<g fill="#BABABA">
<path d="m187.13 88.22-2.1-.19-.6-6.69a6.25 6.25 0 0 0-6.76-5.68l-64.84 5.63a6.26 6.26 0 0 0-5.68 6.75l4.14 47.7-.1 1a6.25 6.25 0 0 0 5.67 6.77l64.85 5.75a6.25 6.25 0 0 0 6.78-5.66l4.32-48.61a6.26 6.26 0 0 0-5.68-6.77zm-9.06-8.1c.98-.1 1.84.64 1.92 1.6l.52 5.91-44.05-3.92zm-64.51 30.13-1.96-22.58a1.78 1.78 0 0 1 1.61-1.93l3.19-.28c-.48.79-.79 1.7-.88 2.67zm70.47 32.95c-.08.98-.94 1.7-1.93 1.61l-64.85-5.75a1.77 1.77 0 0 1-1.61-1.94l4.32-48.6c.08-.98.95-1.71 1.93-1.62l64.85 5.76c.97.09 1.7.94 1.61 1.93z"/>
<path d="m144.66 128.58-9.8-11.71-13.98 11.67-.56 6.32 59.52 5.29 1.24-13.87-13.88-16.55zm-5.49-27.06a7.02 7.02 0 1 0-13.98-1.24 7.02 7.02 0 0 0 13.98 1.24z"/>
<path d="m143.01 192.19 1.46.2-1 7.4-1.46-.18.7-5.25h-.05l-4.24 4.77-1.46-.2 1-7.4 1.45.18-.7 5.26.05.02zm-9.3-1.55c.86.19 1.5.55 1.96 1.05.45.52.64 1.11.56 1.79l-1.44-.33c0-.34-.12-.62-.35-.84-.24-.24-.56-.4-.99-.5a1.84 1.84 0 0 0-1.18.04 1 1 0 0 0-.6.72c-.16.72.26 1.2 1.28 1.43l1.06.25-.25 1.08-1.04-.24c-.87-.2-1.39.03-1.53.68a.9.9 0 0 0 .16.79c.17.22.48.38.89.48.4.1.76.1 1.05-.02.3-.1.5-.3.63-.58l1.39.32a2.14 2.14 0 0 1-1.23 1.33c-.6.25-1.3.3-2.1.1a3.2 3.2 0 0 1-1.87-.99 1.8 1.8 0 0 1 .18-2.53c.28-.24.6-.36.99-.38l.01-.05c-.45-.21-.76-.5-.93-.84a1.66 1.66 0 0 1-.12-1.14c.16-.7.55-1.19 1.19-1.48.62-.3 1.4-.35 2.29-.14zm-10.12-1.57c.8-.5 1.72-.57 2.76-.28a3.4 3.4 0 0 1 2.2 1.7c.42.84.46 1.83.14 2.96a3.97 3.97 0 0 1-1.69 2.42c-.81.49-1.73.58-2.77.29a3.35 3.35 0 0 1-2.19-1.7 3.97 3.97 0 0 1-.15-2.97 3.88 3.88 0 0 1 1.7-2.42zm3.65 1.99c-.21-.55-.63-.9-1.24-1.08-.6-.18-1.15-.1-1.61.25a3 3 0 0 0-1.04 1.68 3.05 3.05 0 0 0-.02 1.98c.22.54.63.9 1.24 1.07.62.17 1.15.1 1.62-.25a3 3 0 0 0 1.05-1.68c.23-.78.23-1.44 0-1.97zm-8.56-5.13c1.07.48 1.72 1.2 1.96 2.14s.05 2.1-.56 3.44a11.45 11.45 0 0 1-1.8 2.93 3.67 3.67 0 0 1-1.99 1.21c-.7.14-1.5.02-2.4-.34l-.6-.26a6.77 6.77 0 0 0-1.93-.46l.52-1.14c.13-.04.37-.02.73.06.35.08.74.2 1.14.36l.6.24c.46.2.88.3 1.24.33.36.03.69-.03 1-.19.32-.14.6-.37.88-.65.26-.3.54-.68.85-1.16l-.04-.02c-.41.3-.85.46-1.36.49-.5.04-1.01-.07-1.55-.32a3.08 3.08 0 0 1-1.79-1.9 3.72 3.72 0 0 1 .28-2.78 3.94 3.94 0 0 1 2.03-2.13 3.4 3.4 0 0 1 2.79.15zm-.5 1.15a1.81 1.81 0 0 0-1.66-.02c-.5.25-.93.74-1.27 1.48-.32.69-.4 1.3-.25 1.84.16.53.52.93 1.12 1.2a1.8 1.8 0 0 0 1.63.05c.5-.23.92-.7 1.22-1.4a2.8 2.8 0 0 0 .3-1.92 1.81 1.81 0 0 0-1.1-1.23zm-11.14 1.63a2.87 2.87 0 0 1-1.48-2.05 4.2 4.2 0 0 1 .63-2.84 4.2 4.2 0 0 1 2.12-1.97 2.8 2.8 0 0 1 2.49.21c.47.27.81.6 1.07 1 .24.4.34.84.34 1.3l.02.03 1.82-3.2 1.31.75-4.93 8.6-1.26-.7.62-1.08h-.03c-.39.23-.83.35-1.3.34-.5 0-.97-.14-1.42-.39zm3.5-5.34a1.82 1.82 0 0 0-1.62-.12 2.8 2.8 0 0 0-1.4 1.33 2.9 2.9 0 0 0-.45 1.88c.09.58.4 1.04.93 1.33.5.3 1.04.33 1.59.1a2.97 2.97 0 0 0 1.41-1.31c.37-.67.52-1.3.44-1.88-.1-.59-.4-1.03-.9-1.33zm-6.43-4.04a2.09 2.09 0 0 0-1.42-.42 1.6 1.6 0 0 0-1.16.67l-.33.48 1.55.96c.9.53 1.52.53 1.9-.01a.87.87 0 0 0 .14-.84 1.7 1.7 0 0 0-.68-.84zm1.01-.74c.61.43 1 .95 1.15 1.55.14.61.02 1.17-.36 1.72-.39.53-.88.81-1.5.83a3.87 3.87 0 0 1-2.1-.7l-1.72-1.08-.34.48c-.24.35-.32.7-.22 1.04.09.34.33.66.74.95.34.23.67.34 1 .34.35.02.63-.1.87-.33l1.15.81c-.4.52-.96.8-1.67.84-.7.03-1.41-.2-2.1-.69a3.3 3.3 0 0 1-1.4-1.8 2.17 2.17 0 0 1 .37-1.92l2.97-4.2 1.16.83-.72 1.03.03.01a2.4 2.4 0 0 1 1.33-.24c.5.05.95.23 1.36.53zM92.85 174l.14-5.11 1.41 1.21-.16 4.45.04.04 2.28-2.62 1.1.96-2.27 2.62.05.04 4.39-.81 1.37 1.2-5 .9.05 4.7-1.35-1.16.02-4.23-.04-.04-2.1 2.43-1.12-.96 2.1-2.43-.04-.04-4.19.63-1.35-1.16zm-7.18-3.95c.36.41.79.63 1.28.67.5.02.99-.14 1.45-.48l-2.5-2.86c-.42.4-.66.84-.7 1.34-.04.48.1.93.47 1.33zm1.92-4.13-.93-1.08a2.42 2.42 0 0 1 1.93-.28c.7.17 1.35.57 1.9 1.2.7.81 1.02 1.7.91 2.61a4 4 0 0 1-1.47 2.55 4.03 4.03 0 0 1-2.73 1.13 3.23 3.23 0 0 1-2.45-1.2 3.16 3.16 0 0 1-.87-2.5c.1-.88.59-1.7 1.44-2.44l.4-.35 3.48 3.98.07-.05c.5-.42.76-.9.81-1.45a1.93 1.93 0 0 0-.53-1.5 2 2 0 0 0-.96-.66c-.36-.1-.7-.1-1 .04zm-3.13-7.61-2.68 1.9 2.02 2.86 2.68-1.9.86 1.22-6.12 4.3-.86-1.21 2.47-1.73-2.01-2.87-2.48 1.73-.85-1.2 6.11-4.31zm-2.58-3.82.72 1.28-6.5 3.69-.72-1.28 4.6-2.61-.03-.04-6.37-.5-.72-1.28 6.5-3.7.72 1.28-4.61 2.62.03.06zm-10.44-6.1c.22.49.56.82 1.04 1 .47.16.98.15 1.52-.04l-1.56-3.46c-.53.25-.88.61-1.06 1.07-.2.45-.16.93.06 1.42zm3.03-3.4-.59-1.31a2.5 2.5 0 0 1 1.94.28c.64.37 1.13.94 1.46 1.7.46 1 .5 1.91.14 2.78a3.93 3.93 0 0 1-2.15 2 4.01 4.01 0 0 1-2.95.29c-.9-.28-1.56-.9-2-1.85a3.11 3.11 0 0 1-.1-2.64 3.91 3.91 0 0 1 2.09-1.93l.48-.22 2.19 4.83.08-.04c.58-.27.98-.64 1.18-1.15a1.9 1.9 0 0 0-.06-1.58 2.3 2.3 0 0 0-.74-.92c-.3-.2-.62-.3-.97-.24zm-7.25-7.79.45 1.59 1.9-.55-.4-1.44c-.25-.84-.69-1.17-1.33-.98-.3.1-.52.25-.62.5-.11.22-.11.52 0 .88zm2.93-.78.44 1.53 2.16-.61-.5-1.72a1.6 1.6 0 0 0-.54-.88c-.25-.18-.55-.2-.9-.11-.71.21-.94.8-.66 1.79zm4.06 2.02-7.2 2.07-.93-3.28c-.2-.7-.2-1.3.02-1.79.2-.49.6-.8 1.16-.97a1.6 1.6 0 0 1 1.9.76l.06-.01a1.77 1.77 0 0 1 1.24-2.02 1.9 1.9 0 0 1 1.7.24c.51.35.88.91 1.1 1.68zm-10.25-9.66c-.16-.93.04-1.74.63-2.44a4.27 4.27 0 0 1 2.58-1.32 4.1 4.1 0 0 1 2.88.38 2.83 2.83 0 0 1 1.43 2.05c.08.53.05 1.01-.1 1.45-.15.46-.42.82-.78 1.1v.03l3.62-.62.25 1.48-9.77 1.69-.26-1.43 1.23-.2v-.04c-.44-.14-.81-.4-1.12-.78a2.8 2.8 0 0 1-.59-1.35zm6.34-.7c-.11-.6-.42-1.04-.94-1.32s-1.16-.36-1.92-.23a2.9 2.9 0 0 0-1.73.85c-.39.44-.53.96-.44 1.56.1.59.41 1.01.95 1.3.52.29 1.16.37 1.9.24a3 3 0 0 0 1.74-.86c.4-.44.54-.96.44-1.54zm-6.31-7.63c.04.54.25.98.64 1.3.39.33.87.49 1.44.49l-.3-3.79a2 2 0 0 0-1.35.65c-.32.36-.47.8-.43 1.35zm4.01-2.17-.1-1.41c.68.05 1.25.36 1.72.92.46.56.73 1.26.8 2.1a3.3 3.3 0 0 1-.83 2.64 3.95 3.95 0 0 1-2.7 1.16 4.05 4.05 0 0 1-2.87-.73 3.2 3.2 0 0 1-1.24-2.43 3.08 3.08 0 0 1 .8-2.5 3.8 3.8 0 0 1 2.62-1.1l.52-.05.4 5.28.1-.01a2.13 2.13 0 0 0 1.51-.67c.36-.4.52-.9.47-1.52-.03-.44-.16-.8-.37-1.1-.21-.31-.5-.5-.83-.58zm1.96-4.42-.02 1.45-7.48-.16.04-1.85 5.58-2.33v-.06l-5.5-2.57.05-1.81 7.48.16-.03 1.44-5.21-.1v.05l4.88 2.37-.01 1.09-5 2.17v.05zM64.4 101.1c-.08.53.04 1 .35 1.4s.75.65 1.3.77l.51-3.77a2.07 2.07 0 0 0-1.46.36c-.4.28-.63.7-.7 1.23zm4.37-1.3.2-1.41a2.4 2.4 0 0 1 1.47 1.26c.35.64.47 1.4.36 2.22a3.33 3.33 0 0 1-1.36 2.4 3.8 3.8 0 0 1-2.88.58 4.03 4.03 0 0 1-2.65-1.3 3.2 3.2 0 0 1-.72-2.63 3.14 3.14 0 0 1 1.3-2.3c.74-.5 1.67-.67 2.8-.53l.51.07-.7 5.25.1.01c.64.08 1.19-.04 1.62-.36.44-.3.7-.77.78-1.38a2.1 2.1 0 0 0-.14-1.16 1.38 1.38 0 0 0-.68-.72zm3.73-7.37-3.2-.72-.8 3.41 3.2.74-.33 1.44-7.29-1.67.33-1.44 2.95.67.79-3.41-2.95-.68.33-1.44 7.3 1.66zm2.45-7.74-3.1-1.07-1.14 3.32 3.1 1.07-.47 1.4-7.08-2.43.48-1.4 2.85.98 1.13-3.32-2.85-.97.48-1.4 7.08 2.42zm2.66-8.6c.36.87.32 1.8-.13 2.78a3.37 3.37 0 0 1-2.01 1.93 3.9 3.9 0 0 1-2.93-.3 3.94 3.94 0 0 1-2.15-2.03c-.38-.87-.34-1.8.12-2.77a3.35 3.35 0 0 1 2.01-1.92c.9-.3 1.88-.2 2.95.29a3.92 3.92 0 0 1 2.14 2.03zm-2.49 3.34c.56-.14.97-.5 1.24-1.07.25-.57.25-1.12-.01-1.64-.27-.5-.77-.93-1.5-1.28a3.09 3.09 0 0 0-1.97-.3c-.57.13-.99.49-1.24 1.06a1.77 1.77 0 0 0 0 1.64 3 3 0 0 0 1.52 1.28c.73.35 1.39.44 1.96.3zm8.73-12.01-2.76-1.76-1.88 2.97 2.76 1.76-.78 1.24-6.32-4.01.78-1.24L78.21 68l1.88-2.96-2.54-1.62.79-1.24 6.32 4.01zm-1.2-8.96c-.34.43-.48.9-.42 1.4.07.5.3.94.72 1.32l2.37-2.97c-.47-.34-.95-.5-1.44-.45-.48.05-.9.3-1.24.7zm4.4 1.15.9-1.12c.45.5.66 1.12.62 1.85a3.61 3.61 0 0 1-.84 2.08 3.38 3.38 0 0 1-2.4 1.39 3.96 3.96 0 0 1-2.77-1 4.05 4.05 0 0 1-1.61-2.48c-.15-.93.1-1.8.75-2.62.64-.8 1.4-1.24 2.3-1.3.9-.06 1.78.27 2.67.98l.41.32-3.3 4.14.07.05c.51.42 1.03.59 1.56.55.55-.05 1-.32 1.4-.8.26-.35.42-.7.47-1.07.04-.36-.03-.69-.23-.97zm6.16-5.18L89.5 50.9l-1.8 1.9 1.94 2.2a4.1 4.1 0 0 1 1.15 1.9l.04.04zm-.68 5.29-.94 1-2.28-2.18.41-.44c.12-.57-.24-1.3-1.04-2.18l-2.75-2.97 3.72-3.92 4.58 4.33.8-.85 2.29 2.17-.95 1-1.42-1.36-3.84 4.05zm8.15-11.4a3.4 3.4 0 0 1-1.4 2.41c-.85.67-1.73.92-2.67.78a3.93 3.93 0 0 1-2.48-1.61 3.99 3.99 0 0 1-.97-2.79c.08-.95.55-1.75 1.39-2.41a3.38 3.38 0 0 1 2.68-.77c.92.14 1.75.68 2.48 1.6.72.93 1.05 1.86.97 2.8zm-3.76 1.81c.57.14 1.1.02 1.6-.38.5-.39.75-.87.75-1.45a3 3 0 0 0-.76-1.83 3.04 3.04 0 0 0-1.6-1.17 1.76 1.76 0 0 0-1.59.37c-.5.4-.75.88-.75 1.47 0 .57.26 1.18.75 1.82.5.64 1.04 1.03 1.6 1.17zm8.72-10.26-1.21.79c-.28-.27-.62-.4-1-.43-.36 0-.75.1-1.14.35-.5.32-.79.79-.84 1.37-.05.6.13 1.22.56 1.88.43.67.93 1.1 1.48 1.28.56.19 1.1.12 1.6-.21.39-.24.65-.54.79-.87.15-.34.16-.7.04-1.1l1.21-.76c.3.68.34 1.37.1 2.05a3.4 3.4 0 0 1-1.46 1.73c-.9.59-1.8.76-2.7.52a3.94 3.94 0 0 1-2.32-1.83 3.98 3.98 0 0 1-.71-2.86c.16-.93.68-1.68 1.56-2.25a3.26 3.26 0 0 1 2.21-.59c.75.08 1.35.39 1.83.93zm4.98-5.6.58 1.05-2.06 1.15 3.12 5.48-1.28.73-3.12-5.47-2.05 1.16-.59-1.03zm6.55 8.26c-.23.09-.43.17-.57.2l-.5-1.1c.08-.01.24-.08.44-.16.34-.16.55-.34.67-.58s.16-.56.12-.98l-.05-.4-5.56-5.71 1.45-.67 4.28 4.79.03-.02-.76-6.37 1.43-.64.66 8.28c.08.96 0 1.66-.24 2.16-.24.48-.7.88-1.4 1.2zm9.75-6.65-1.96-5.99-3.27 1.07 1.95 5.98-1.4.47-2.33-7.12 6.09-1.98 2.32 7.1zm7.89-1.98-.75-3.2-3.41.8.73 3.2-1.44.32-1.68-7.29 1.44-.33.68 2.95 3.42-.79-.67-2.94 1.44-.34 1.68 7.3zm8.72-2.17a3.36 3.36 0 0 1-2.43 1.36 3.32 3.32 0 0 1-2.69-.68 4 4 0 0 1-1.32-2.65 3.9 3.9 0 0 1 .59-2.9 3.35 3.35 0 0 1 2.41-1.37 3.31 3.31 0 0 1 2.7.68c.71.62 1.15 1.5 1.31 2.66a3.99 3.99 0 0 1-.57 2.9zm-4.15-.34c.42.4.94.56 1.56.48.63-.08 1.1-.38 1.39-.88.3-.5.39-1.15.27-1.96a3.07 3.07 0 0 0-.78-1.83 1.8 1.8 0 0 0-1.56-.48c-.64.1-1.09.37-1.38.88-.3.5-.39 1.16-.28 1.96.1.81.36 1.41.78 1.83zm17.8 1.4-1.45-.2.97-7.41 1.47.2-.7 5.23.06.02 4.24-4.79 1.45.2-.98 7.41-1.46-.19.7-5.26-.06-.01zm9.3 1.57a3.62 3.62 0 0 1-1.96-1.07c-.46-.5-.64-1.1-.55-1.79l1.43.34c0 .33.13.61.36.85.22.23.56.4.98.5.48.1.87.09 1.19-.06.3-.15.5-.39.59-.72.16-.72-.27-1.18-1.28-1.42l-1.07-.24.25-1.08 1.06.24c.86.2 1.37-.03 1.53-.7a.9.9 0 0 0-.16-.78 1.56 1.56 0 0 0-.9-.48 1.9 1.9 0 0 0-1.06.02 1 1 0 0 0-.62.58l-1.4-.32c.23-.63.64-1.07 1.23-1.34.6-.25 1.3-.29 2.1-.1.88.2 1.49.53 1.88 1 .4.46.52 1 .37 1.62-.08.38-.27.68-.55.92s-.61.36-.99.36v.05a2 2 0 0 1 .92.84c.18.35.22.72.12 1.15-.16.7-.56 1.19-1.18 1.48-.64.3-1.4.35-2.3.15zm10.13 1.72c-.83.44-1.75.49-2.77.13a3.34 3.34 0 0 1-2.12-1.81 4 4 0 0 1 0-2.95c.38-1.1.98-1.89 1.8-2.33.85-.45 1.77-.5 2.8-.16a3.4 3.4 0 0 1 2.1 1.81c.37.87.37 1.85 0 2.96a4 4 0 0 1-1.81 2.35zm-3.56-2.16c.19.54.59.92 1.19 1.13.6.2 1.14.15 1.62-.17.48-.32.86-.86 1.12-1.63.27-.77.3-1.44.1-1.98a1.78 1.78 0 0 0-1.16-1.14c-.6-.2-1.15-.14-1.64.18-.48.32-.86.86-1.12 1.62-.27.77-.3 1.44-.11 1.99zm8.44 5.2c-1.07-.5-1.72-1.22-1.96-2.16-.24-.95-.06-2.1.56-3.43a11.2 11.2 0 0 1 1.8-2.93 3.59 3.59 0 0 1 1.98-1.21 4.07 4.07 0 0 1 2.4.34l.6.24c.38.15.74.27 1.1.36.36.08.64.13.84.12l-.51 1.12c-.13.04-.39.03-.73-.04a8 8 0 0 1-1.15-.36l-.59-.25c-.46-.19-.88-.3-1.24-.32-.36-.04-.7.02-1.01.17a2.9 2.9 0 0 0-.88.67c-.27.28-.55.66-.85 1.16l.05.02c.4-.3.85-.48 1.35-.5.49-.03 1.01.08 1.54.32a3.16 3.16 0 0 1 1.8 1.9c.27.84.18 1.76-.29 2.77a3.94 3.94 0 0 1-2.01 2.15c-.87.35-1.8.3-2.8-.15zm.52-1.16c.58.26 1.13.28 1.64.02.5-.25.93-.74 1.26-1.48.32-.7.4-1.32.26-1.85a1.85 1.85 0 0 0-1.11-1.2 1.92 1.92 0 0 0-1.64-.05c-.5.24-.9.7-1.23 1.4-.33.74-.44 1.38-.29 1.93.13.55.5.96 1.1 1.23zm11.12-1.6a2.82 2.82 0 0 1 1.48 2.04 4.3 4.3 0 0 1-.63 2.83 4.2 4.2 0 0 1-2.13 1.98c-.84.32-1.67.25-2.48-.22a2.8 2.8 0 0 1-1.07-1 2.4 2.4 0 0 1-.35-1.3l-.02-.02-1.83 3.19-1.3-.75 4.94-8.6 1.25.7-.61 1.08.02.01a2.73 2.73 0 0 1 2.72.05zm-3.5 5.33c.54.29 1.07.34 1.62.12a2.97 2.97 0 0 0 1.4-1.34c.38-.66.53-1.3.44-1.88a1.75 1.75 0 0 0-.92-1.33 1.71 1.71 0 0 0-1.6-.1 3 3 0 0 0-1.4 1.31 3 3 0 0 0-.44 1.9c.08.57.38 1.02.9 1.31zm6.42 4.05c.45.32.92.46 1.4.41a1.5 1.5 0 0 0 1.16-.67l.34-.48-1.56-.94c-.88-.55-1.5-.55-1.9 0a.89.89 0 0 0-.12.85c.09.3.32.57.68.83zm-1.03.74c-.6-.44-.99-.96-1.13-1.56-.15-.6-.03-1.17.36-1.71.37-.54.86-.8 1.49-.83.61-.01 1.3.21 2.1.7l1.71 1.07.34-.46c.25-.35.33-.7.24-1.04a1.8 1.8 0 0 0-.75-.95 1.7 1.7 0 0 0-1-.36c-.35 0-.64.1-.88.33l-1.13-.8c.4-.53.96-.81 1.66-.84.71-.04 1.4.19 2.1.68a3.37 3.37 0 0 1 1.4 1.82 2.2 2.2 0 0 1-.38 1.91l-2.96 4.19-1.17-.83.73-1.01-.04-.03c-.4.22-.84.3-1.33.24a2.95 2.95 0 0 1-1.36-.52zm12.27 4.63-.15 5.1-1.4-1.21.16-4.47-.04-.02-2.28 2.62-1.1-.96 2.26-2.62-.04-.04-4.39.8-1.39-1.19 5-.9-.04-4.7 1.35 1.15-.01 4.24.04.04 2.1-2.44 1.11.96-2.1 2.44.04.04 4.2-.63 1.34 1.15zm7.15 3.96c-.36-.4-.78-.63-1.28-.66a2.2 2.2 0 0 0-1.45.47l2.5 2.86c.42-.4.66-.84.7-1.33.05-.5-.1-.93-.47-1.35zm-1.92 4.13.94 1.08c-.58.36-1.22.45-1.92.29a3.63 3.63 0 0 1-1.91-1.21 3.36 3.36 0 0 1-.92-2.62c.1-.92.59-1.76 1.47-2.53a4.05 4.05 0 0 1 2.73-1.14c.95 0 1.77.4 2.45 1.2.68.77.98 1.6.87 2.5a3.9 3.9 0 0 1-1.44 2.45l-.4.33-3.48-3.98-.07.07c-.49.42-.76.9-.81 1.44-.05.54.13 1.04.53 1.5.3.34.62.55.96.66.36.12.7.1 1-.04zm3.11 7.63 2.7-1.89-2.03-2.86-2.68 1.89-.86-1.22 6.1-4.31.88 1.2-2.48 1.76 2.02 2.86 2.47-1.75.85 1.22-6.12 4.3zm2.57 3.84-.73-1.28 6.5-3.7.74 1.28-4.6 2.6.03.06 6.36.5.73 1.27-6.5 3.7-.74-1.29 4.63-2.62-.03-.04zm10.42 6.1a1.86 1.86 0 0 0-1.04-1 2.14 2.14 0 0 0-1.52.04l1.56 3.46c.52-.26.88-.62 1.06-1.07.18-.45.16-.93-.06-1.43zm-3.04 3.41.58 1.3a2.4 2.4 0 0 1-1.92-.28 3.6 3.6 0 0 1-1.48-1.7 3.34 3.34 0 0 1-.12-2.77 3.9 3.9 0 0 1 2.15-2 4 4 0 0 1 2.95-.3c.89.28 1.56.9 2 1.85.4.93.45 1.81.09 2.64a3.85 3.85 0 0 1-2.1 1.93l-.46.21-2.19-4.82-.08.04c-.58.27-.98.65-1.18 1.15-.22.5-.2 1.02.06 1.6.19.38.43.69.74.9.3.21.62.3.96.25zm7.24 7.79-.46-1.59-1.9.55.4 1.43c.25.85.69 1.18 1.33 1 .3-.1.5-.26.61-.49.12-.24.12-.54.01-.9zm-2.95.78-.44-1.53-2.15.61.5 1.72c.12.43.29.7.54.88.24.17.54.2.88.1.74-.2.95-.8.67-1.78zm-4.05-2.02 7.18-2.07.95 3.28c.2.7.19 1.3-.03 1.79-.2.49-.6.8-1.16.98-.37.1-.74.08-1.1-.07a1.45 1.45 0 0 1-.8-.7l-.06.01c.07.48-.01.9-.22 1.27-.23.37-.58.62-1.02.74-.64.19-1.2.11-1.7-.24a2.9 2.9 0 0 1-1.1-1.68zm10.22 9.66c.16.94-.05 1.76-.64 2.44a4.14 4.14 0 0 1-2.58 1.33 4.3 4.3 0 0 1-2.88-.37 2.83 2.83 0 0 1-1.42-2.07 2.92 2.92 0 0 1 .1-1.45c.16-.44.4-.8.78-1.1v-.04l-3.62.63-.26-1.47 9.79-1.69.24 1.42-1.21.2v.05c.44.13.8.4 1.1.78.32.38.51.83.6 1.34zm-6.33.72c.1.58.41 1.02.93 1.32.52.28 1.16.36 1.92.22a2.94 2.94 0 0 0 1.74-.86c.38-.44.53-.96.42-1.56-.1-.57-.41-1.01-.93-1.3s-1.16-.36-1.92-.24a2.9 2.9 0 0 0-1.72.87c-.4.44-.55.95-.44 1.55zm6.28 7.62a1.79 1.79 0 0 0-.64-1.3 2.15 2.15 0 0 0-1.44-.49l.3 3.79a2.05 2.05 0 0 0 1.35-.64c.32-.36.47-.82.43-1.36zm-4.01 2.16.1 1.42a2.42 2.42 0 0 1-1.72-.91 3.7 3.7 0 0 1-.8-2.11 3.3 3.3 0 0 1 .83-2.64 3.89 3.89 0 0 1 2.7-1.16c1.17-.1 2.13.16 2.87.74a3.2 3.2 0 0 1 1.24 2.42 3.08 3.08 0 0 1-.81 2.5 3.8 3.8 0 0 1-2.61 1.11l-.52.04-.4-5.28h-.1c-.65.06-1.14.28-1.52.68-.36.4-.52.91-.46 1.52.02.44.16.8.37 1.1.21.3.5.5.83.57zm-2 4.42.04-1.44 7.48.15-.03 1.87-5.6 2.33v.05l5.5 2.57-.05 1.8-7.48-.14.03-1.44 5.23.1v-.05l-4.9-2.37.03-1.1 4.97-2.17v-.05zm5.56 12.77c.06-.53-.06-1-.36-1.4s-.75-.65-1.31-.77l-.5 3.75c.58.06 1.07-.05 1.47-.34.39-.3.63-.7.7-1.24zm-4.38 1.3-.18 1.4a2.45 2.45 0 0 1-1.5-1.26 3.63 3.63 0 0 1-.34-2.23 3.3 3.3 0 0 1 1.34-2.4 3.98 3.98 0 0 1 2.88-.58c1.16.16 2.06.58 2.67 1.3.61.72.85 1.59.72 2.63a3.09 3.09 0 0 1-1.32 2.3 3.8 3.8 0 0 1-2.79.54l-.52-.07.7-5.25-.08-.01a2.2 2.2 0 0 0-1.63.34c-.44.32-.7.79-.77 1.4-.07.43-.02.82.13 1.15.15.34.39.58.7.73zm-3.74 7.35 3.2.73.77-3.42-3.19-.74.32-1.44 7.3 1.67-.32 1.45-2.95-.68-.79 3.43 2.95.66-.33 1.44-7.3-1.66zm-2.48 7.74 3.1 1.07 1.14-3.32-3.1-1.07.47-1.4 7.1 2.43-.49 1.4-2.86-.99-1.14 3.32 2.87.98-.48 1.4-7.08-2.42zm-2.69 8.58a3.37 3.37 0 0 1 .13-2.77 3.35 3.35 0 0 1 2.01-1.92 4 4 0 0 1 2.95.28 4.03 4.03 0 0 1 2.15 2.04c.36.86.32 1.8-.12 2.78a3.36 3.36 0 0 1-2.02 1.91c-.9.3-1.88.2-2.94-.3a3.99 3.99 0 0 1-2.16-2.02zm2.5-3.33c-.56.13-.97.5-1.24 1.07a1.77 1.77 0 0 0 0 1.64c.27.52.78.93 1.52 1.27.75.34 1.4.44 1.96.31s.98-.5 1.24-1.07c.27-.57.27-1.11-.01-1.63a2.99 2.99 0 0 0-1.5-1.28 3 3 0 0 0-1.97-.31zm-8.77 12 2.77 1.75 1.88-2.97-2.77-1.76.8-1.24 6.32 4.01-.8 1.24-2.55-1.61-1.88 2.96 2.55 1.62-.8 1.24-6.3-4zm1.2 8.93c.33-.42.47-.89.41-1.38a2.1 2.1 0 0 0-.72-1.33l-2.37 2.97c.47.34.95.5 1.44.45.48-.05.9-.3 1.24-.7zm-4.41-1.14-.9 1.12a2.46 2.46 0 0 1-.62-1.85c.04-.74.32-1.43.84-2.08a3.38 3.38 0 0 1 2.4-1.39c.93-.07 1.85.27 2.77 1 .9.72 1.45 1.55 1.61 2.48.15.93-.1 1.8-.75 2.62-.64.8-1.4 1.24-2.3 1.3-.9.06-1.78-.27-2.67-.98l-.41-.32 3.3-4.14-.08-.05a2.16 2.16 0 0 0-1.56-.55c-.54.05-1 .32-1.38.8-.27.35-.43.7-.48 1.07-.04.36.02.69.22.97zm-6.18 5.17 3.72 3.52 1.82-1.9-1.98-2.17a4.19 4.19 0 0 1-1.14-1.92l-.04-.04zm.68-5.3.95-.99 2.28 2.17-.41.44c-.12.58.22 1.3 1.04 2.19l2.73 2.97-3.7 3.92-4.58-4.33-.81.85-2.28-2.17.94-1 1.43 1.36 3.84-4.05zm-8.17 11.38c.08-.94.55-1.74 1.4-2.4a3.3 3.3 0 0 1 2.67-.79 3.9 3.9 0 0 1 2.48 1.61c.72.92 1.05 1.85.97 2.79a3.33 3.33 0 0 1-1.39 2.41c-.85.67-1.74.93-2.66.77a3.9 3.9 0 0 1-2.48-1.6 3.97 3.97 0 0 1-1-2.8zm3.76-1.82a1.8 1.8 0 0 0-1.6.39c-.5.39-.75.87-.75 1.45a3 3 0 0 0 .76 1.83 3.02 3.02 0 0 0 1.6 1.17c.56.15 1.1.01 1.59-.37.5-.39.76-.88.75-1.47 0-.57-.26-1.18-.75-1.82a3.11 3.11 0 0 0-1.6-1.18zm-8.72 10.25 1.2-.78c.28.25.61.4.99.42.37.01.76-.1 1.14-.34.51-.32.8-.79.84-1.38a3 3 0 0 0-.54-1.88 2.97 2.97 0 0 0-1.5-1.28 1.76 1.76 0 0 0-1.6.22c-.38.24-.64.53-.78.86-.15.35-.15.71-.04 1.08l-1.2.79a2.68 2.68 0 0 1-.1-2.05c.24-.7.72-1.27 1.44-1.75a3.4 3.4 0 0 1 2.71-.52c.9.24 1.7.85 2.33 1.84.63.97.86 1.93.71 2.87a3.26 3.26 0 0 1-1.57 2.25c-.75.48-1.48.68-2.22.58a2.74 2.74 0 0 1-1.8-.93zm-5 5.59-.59-1.04 2.06-1.16-3.1-5.48 1.27-.72 3.12 5.47 2.05-1.16.6 1.02zm-6.56-8.27c.23-.1.43-.17.57-.2l.51 1.1c-.1.01-.25.06-.45.16-.34.14-.55.34-.67.58s-.16.56-.12.98l.05.4 5.56 5.71-1.45.66-4.28-4.77h-.03l.76 6.36-1.42.66-.67-8.3c-.08-.94 0-1.66.24-2.14.24-.49.7-.88 1.4-1.2zm-9.75 6.63 1.96 5.98 3.27-1.07-1.96-5.98 1.41-.47 2.32 7.12-6.08 1.99-2.33-7.1zm-7.9 1.94.75 3.2 3.4-.79-.72-3.2 1.44-.33 1.68 7.3-1.44.33-.68-2.95-3.43.79.68 2.94-1.44.33-1.68-7.28zm-8.72 2.16a3.33 3.33 0 0 1 2.41-1.37 3.4 3.4 0 0 1 2.7.7c.73.6 1.17 1.47 1.32 2.63a3.92 3.92 0 0 1-.6 2.9 3.33 3.33 0 0 1-2.4 1.38 3.4 3.4 0 0 1-2.7-.7 4 4 0 0 1-1.32-2.65 3.95 3.95 0 0 1 .59-2.89zm4.15.35a1.74 1.74 0 0 0-1.58-.48c-.62.08-1.08.37-1.37.86-.3.5-.39 1.15-.28 1.96.1.82.36 1.42.77 1.83.42.41.94.57 1.56.48.64-.08 1.1-.37 1.39-.88a3 3 0 0 0 .3-1.96 3 3 0 0 0-.8-1.81z"/>
<path d="M149.72 29.63a1.28 1.28 0 1 0 0-2.56 1.28 1.28 0 0 0 0 2.55zm.6 168.17a1.28 1.28 0 1 0 0-2.56 1.28 1.28 0 0 0 0 2.56z" fill-rule="evenodd"/>
</g>
</svg>