<svg xmlns="http://www.w3.org/2000/svg" fill="none" viewBox="0 0 455 190"><path fill="#fff" stroke="#ced7dd" stroke-linecap="round" stroke-linejoin="round" stroke-width="2" d="M337 147v-26l-23-13-7 3v26l23 14 7-4z"/><path stroke="#ced7dd" stroke-miterlimit="10" stroke-width="2" d="m231 147 23 14 97-56"/><path stroke="#ced7dd" stroke-linecap="round" stroke-linejoin="round" stroke-width="2" d="M330 151v-28"/><path fill="#fff" stroke="#ced7dd" stroke-linecap="round" stroke-linejoin="round" stroke-width="2" d="M272 183v-27l-23-12-7 3v26l24 14 6-4z"/><path stroke="#ced7dd" stroke-linecap="round" stroke-linejoin="round" stroke-width="2" d="M266 186v-31"/><path fill="#fff" stroke="#ced7dd" stroke-miterlimit="10" stroke-width="2" d="M352 114v-9l-23-14-7 4v9l23 14z"/><path stroke="#ced7dd" stroke-miterlimit="10" stroke-width="2" d="m322 95 23 14 7-4m-7 4v9"/><path fill="#fff" stroke="#ced7dd" stroke-linecap="round" stroke-linejoin="round" stroke-width="2" d="M352 114v-10l-24-13-101 58v9l24 13z"/><path stroke="#ced7dd" stroke-linecap="round" stroke-linejoin="round" stroke-width="2" d="m228 149 23 13 101-57m-101 57v9"/><path fill="#fff" stroke="#ced7dd" stroke-miterlimit="10" stroke-width="2" d="M251 112V86l-23-14-7 4v26l23 14z"/><path stroke="#ced7dd" stroke-miterlimit="10" stroke-width="2" d="M244 116V87"/><path fill="#fff" stroke="#ced7dd" stroke-miterlimit="10" stroke-width="2" d="M291 93V67l-23-14-6 4v26l23 13z"/><path stroke="#ced7dd" stroke-miterlimit="10" stroke-width="2" d="M285 96V68"/><path fill="#fff" stroke="#ced7dd" stroke-miterlimit="10" stroke-width="2" d="M210 131V99l-24-8-6 4v26l24 14 6-4z"/><path stroke="#ced7dd" stroke-miterlimit="10" stroke-width="2" d="M204 134v-31"/><path fill="#fff" d="M322 27c0 10 0 19-2 26-14 47-142 26-152 103l-38-1v-12"/><path stroke="#ced7dd" stroke-linejoin="round" stroke-width="2" d="M322 27c0 10 0 19-2 26-14 47-142 26-152 103l-38-1v-12"/><path fill="#fff" stroke="#ced7dd" stroke-linecap="round" stroke-linejoin="round" stroke-width="2" d="M213 60V34l-23-14-7 4v26l23 13 7-3z"/><path stroke="#ced7dd" stroke-miterlimit="10" stroke-width="2" d="m107 60 23 13 97-56"/><path stroke="#ced7dd" stroke-linecap="round" stroke-linejoin="round" stroke-width="2" d="M206 63V35"/><path fill="#fff" stroke="#ced7dd" stroke-linecap="round" stroke-linejoin="round" stroke-width="2" d="M148 96V68l-24-12-6 4v26l24 13z"/><path stroke="#ced7dd" stroke-linecap="round" stroke-linejoin="round" stroke-width="2" d="M142 99V68"/><path fill="#fff" stroke="#ced7dd" stroke-miterlimit="10" stroke-width="2" d="M228 26v-9L205 4l-7 4v9l23 13 6-4z"/><path stroke="#ced7dd" stroke-miterlimit="10" stroke-width="2" d="m198 8 23 13 6-4m-6 4v9"/><path fill="#fff" stroke="#ced7dd" stroke-linecap="round" stroke-linejoin="round" stroke-width="2" d="M228 26v-9L204 4 104 61v10l23 13z"/><path stroke="#ced7dd" stroke-linecap="round" stroke-linejoin="round" stroke-width="2" d="m104 62 23 13 101-58M127 75v9"/><path stroke="#ced7dd" stroke-miterlimit="10" stroke-width="2" d="M168 144v12"/><path fill="#0aad4b" stroke="#0aad4b" stroke-linecap="square" stroke-linejoin="round" stroke-width="2" d="M130 143C145 41 306 66 282 11l38-2c22 94-140 53-152 135z"/></svg>