<svg xmlns="http://www.w3.org/2000/svg" viewBox="0 0 45 45" shape-rendering="auto" image-rendering="optimizeQuality">
<g fill="none" stroke="#0aad4b" stroke-linecap="round" stroke-linejoin="round" stroke-width="2.5">
<path d="M34.88 4.46c-1.74 12.67-6.6 21.78-12.38 21.78-5.74 0-10.64-9.11-12.38-21.78z"/>
<path d="M34.38 7.73h5.26c.4 0 .73.32.73.76-.04 3.7-4.22 8.96-9.66 10.67M10.66 7.73h-5.3c-.4 0-.73.32-.73.76.04 3.7 4.22 8.96 9.66 10.67M28.2 35.97a14.82 14.82 0 0 1 3.13 4.57H13.68a15.5 15.5 0 0 1 3.12-4.57c.43-.4.94-.62 1.56-.62h8.32c.58 0 1.09.22 1.52.62zm-3.72-10.11v9.4m-3.96 0v-9.4M22.5 9.9v7.52"/>
</g>
</svg>