<svg xmlns="http://www.w3.org/2000/svg" viewBox="0 0 45 45" shape-rendering="auto" image-rendering="optimizeQuality">
<g fill="none" stroke="#0aad4b" stroke-linecap="round" stroke-linejoin="round" stroke-width="2.5">
<path d="M6.15 10.91h32.7a4.22 4.22 0 0 1 4.21 4.21V36.5c0 2.31-1.89 4.2-4.2 4.2H6.14a4.22 4.22 0 0 1-4.21-4.2V15.11a4.2 4.2 0 0 1 4.2-4.2z"/>
<path d="M17.2 25.82h10.33c.83 0 1.5.64 1.5 1.47v3.14c0 .8-.67 1.46-1.5 1.46H17.2a1.5 1.5 0 0 1-1.5-1.46v-3.14c0-.83.68-1.47 1.5-1.47zm-2.57-14.91V8.84c0-2.5 2.04-4.54 4.54-4.54H25c2.5 0 4.55 2.04 4.55 4.54v2.07M1.94 28.84H15.7m13.33 0h14.03"/>
</g>
</svg>