<svg xmlns="http://www.w3.org/2000/svg" viewBox="0 0 45 45" shape-rendering="auto" image-rendering="optimizeQuality">
<path fill="none" stroke="#0aad4b" stroke-linecap="round" stroke-linejoin="round" stroke-width="2.5" d="m5.62 24.96 2.71-2.71c2.1-2.09 5.27 1.08 3.18 3.17l-2.72 2.72c-2.08 2.09-5.26-1.09-3.17-3.18zm5.89.46 1.92-1.92c2.1-2.13 5.3 1.05 3.18 3.18l-4.64 4.63c-2.09 2.09-5.26-1.08-3.18-3.17m7.44-1.09c2.13-2.13 5.3 1.05 3.18 3.18l-4.26 4.26c-2.1 2.08-5.27-1.09-3.18-3.18m6.77-.42c2.09-2.08 5.27 1.09 3.18 3.18l-3.6 3.59c-2.09 2.09-5.26-1.09-3.17-3.17m19.34-7.81c4.85-4.14 2.97-6.85 8.11-11.03.59-.46.63-1.3.13-1.84l-6.77-7.1a1.27 1.27 0 0 0-1.67-.12c-.76.58-1.47 1.17-2.18 1.75-3.26 2.67-3.8.25-7.23.46-3.76.25-6.64 2.8-9.48 5.14-1.05.83-2.89 1.96-2.05 3.55.75 1.46 2.21.7 3.26.2 2.97-1.33 5.8-3.09 8.65-.2l10.78 10.73c2.09 2.09-1.09 5.3-3.18 3.17m-9.9-9.85 9.9 9.85c2.1 2.1-1.08 5.3-3.17 3.18l-1.97-1.92m-7.94-7.94 7.94 7.94c2.13 2.09-1.04 5.26-3.17 3.17l-2.18-2.21m1.55 1.54c2.09 2.13-1.09 5.3-3.18 3.18l-1.54-1.55M7 23.62c-1.84-3.09-.67-4.92-4.68-9.02a1.2 1.2 0 0 1 .04-1.8l7.27-6.5c.5-.47 1.34-.43 1.75.12 1.97 2.3 4.3 4.05 7.27 4.92"/>
</svg>