<svg xmlns="http://www.w3.org/2000/svg" viewBox="0 0 45 45" shape-rendering="auto" image-rendering="optimizeQuality">
<path fill="none" stroke="#0aad4b" stroke-linecap="round" stroke-linejoin="round" stroke-width="2.5" d="M3.61 4.32h37.74c.95 0 1.71.75 1.71 1.67V28.9c0 .91-.75 1.67-1.71 1.67H3.6c-.91 0-1.67-.76-1.67-1.67V5.99c0-.92.76-1.67 1.67-1.67zm9.91 32.7h17.96c.4 0 .75.32.75.76v2.1c0 .44-.35.8-.75.8H13.52a.8.8 0 0 1-.8-.8v-2.1c0-.44.37-.76.8-.76zm3.99-6.44v6.44m9.99-6.44v6.44m1.15-11.34H16.31M25.55 11l2.66 2.67c.12.12.12.35 0 .47l-7.36 7.32c-.28.32-.6.48-1.04.56l-2.66.52c-.28.04-.52-.2-.44-.48l.48-2.66c.08-.4.24-.76.55-1.04L25.07 11a.36.36 0 0 1 .48 0zm-1.72 1.27 3.1 3.1m-9.58 3.5 2.98 3"/>
</svg>