<svg xmlns="http://www.w3.org/2000/svg" viewBox="0 0 45 45" shape-rendering="auto" image-rendering="optimizeQuality">
<path fill="none" stroke="#0aad4b" stroke-linecap="round" stroke-linejoin="round" stroke-width="2.5" d="m33.78 39.18-5.32-9.04m-5.94 11.7V30.1m-11.25 9.08 5.32-9.04m-13.06-27h37.94c.95 0 1.72.78 1.72 1.76v23.53c0 .94-.77 1.71-1.72 1.71H3.53c-.94 0-1.71-.77-1.71-1.71V4.9c0-.98.77-1.75 1.71-1.75zM1.82 26.19l4.05-3.89 3.93 1.92 3.31-4.37 4.34 2.33 4.05-5.69 4.22 3.07 4.3-5.9 3.88 1.85 3.15-5.56-4.13.2m4.13-.2 1.68 3.64"/>
</svg>