<svg xmlns="http://www.w3.org/2000/svg" fill="none" viewBox="0 0 281 161"><path fill="#0AAD4B" d="M45.4 108c25 0 45.3-11.5 45.3-25.7S70.4 56.6 45.4 56.6C20.4 56.6 0 68.1 0 82.3S20.3 108 45.4 108Z"/><path fill="#fff" d="M45.4 96.4c13.7 0 24.8-6.3 24.8-14 0-7.9-11.1-14.2-24.8-14.2-13.8 0-24.9 6.3-24.9 14.1s11.1 14 24.9 14Z"/><path stroke="#0AAD4B" stroke-miterlimit="10" d="m32.2 101.6 47.5-23.3m-54 19.9 47.6-23.4M67 71.5 19.4 94.8M13 91.5 60.5 68m-6.3-3.3L6.6 88"/><path fill="#fff" stroke="#CED7DD" stroke-miterlimit="10" stroke-width="2" d="m198.8 92-22.2-64.2a7.6 7.6 0 0 0-3.4-4.1l-37-21.2a6.9 6.9 0 0 0-6.7 0l-13.8 8a19.5 19.5 0 0 0-7.5 7.6L60 107.8a25 25 0 0 1-6.7 7.8l-2.3 1.8a12.1 12.1 0 0 0-5 9.8v3.7l42.8 24.6 7.6-5.5a21 21 0 0 0 6.2-7.4L151 49.1l1.1-1.9.2-.2.8-1 .9-1 .8-1 1.2-1 .8-.7 2.1-1.4 1.7-1 10.7-6-9.2 7 14.5 8.2 5.2 15.2-27.3-15.6a34 34 0 0 0-1.8 3.3l-4.1 9.8 2.7 7.9c.1 1.2 1.7 2.1 3.6 2.1 2 0 3.7-1 3.7-2.3 0-.2 0-.5-.2-.6l-2.8-8.3 31.1 17.9 5 14.4c.1 1.2 1.7 2.1 3.6 2.1 2 0 3.7-1 3.7-2.3l-.2-.7Z"/><path fill="#fff" stroke="#CED7DD" stroke-miterlimit="10" stroke-width="2" d="M139.5 117v20.4c0 4.7 6.7 8.5 14.9 8.5s14.9-3.8 14.9-8.5v-20.3h-29.8Zm65.4-2.2v20.4c0 4.6 6.6 8.4 14.8 8.4 8.2 0 15-3.8 15-8.4v-20.4h-29.8Z"/><path fill="#0AAD4B" stroke="#0AAD4B" stroke-miterlimit="10" d="M154.4 125.5c8.2 0 14.9-3.8 14.9-8.5 0-4.6-6.7-8.4-15-8.4-8.1 0-14.8 3.8-14.8 8.4 0 4.7 6.7 8.5 14.9 8.5Z"/><path fill="#fff" stroke="#CED7DD" stroke-miterlimit="10" stroke-width="2" d="M250.2 139.9v11.3c0 4.7 6.7 8.4 14.9 8.4s14.9-3.7 14.9-8.4v-11.3h-29.8Z"/><path fill="#0AAD4B" stroke="#0AAD4B" stroke-miterlimit="10" d="M265.1 148.3c8.2 0 14.9-3.8 14.9-8.4 0-4.7-6.7-8.5-14.9-8.5s-14.9 3.8-14.9 8.5c0 4.6 6.7 8.4 14.9 8.4Z"/><path fill="#fff" stroke="#CED7DD" stroke-miterlimit="10" stroke-width="2" d="M226.3 55.5V76c0 4.7 6.6 8.4 14.9 8.4 8.2 0 14.9-3.7 14.9-8.4V55.5h-29.8Z"/><path fill="#0AAD4B" stroke="#0AAD4B" stroke-miterlimit="10" d="M241.2 64c8.2 0 14.9-3.8 14.9-8.5 0-4.6-6.7-8.4-15-8.4-8.2 0-14.8 3.8-14.8 8.4 0 4.7 6.6 8.5 14.9 8.5Z"/><path fill="#fff" stroke="#CED7DD" stroke-miterlimit="10" stroke-width="2" d="M219.7 123.7c25 0 45.4-11.5 45.4-25.7 0-14.1-20.3-25.6-45.4-25.6-25 0-45.3 11.5-45.3 25.6 0 14.2 20.3 25.7 45.3 25.7Z"/><path fill="#fff" stroke="#CED7DD" stroke-miterlimit="10" stroke-width="2" d="M219.7 119c25 0 45.4-11.4 45.4-25.6 0-14.2-20.3-25.7-45.4-25.7-25 0-45.3 11.5-45.3 25.7s20.3 25.7 45.3 25.7Z"/></svg>