<?xml version="1.0" standalone="no"?>
<!DOCTYPE svg PUBLIC "-//W3C//DTD SVG 20010904//EN"
 "http://www.w3.org/TR/2001/REC-SVG-20010904/DTD/svg10.dtd">
<svg version="1.0" xmlns="http://www.w3.org/2000/svg"
 width="512.000000pt" height="512.000000pt" viewBox="0 0 512.000000 512.000000"
 preserveAspectRatio="xMidYMid meet">

<g transform="translate(0.000000,512.000000) scale(0.100000,-0.100000)"
fill="#000000" stroke="none">
<path d="M3768 5106 c-20 -7 -50 -24 -65 -37 -16 -13 -607 -551 -1314 -1195
-1006 -917 -1289 -1180 -1303 -1211 -24 -54 -24 -152 0 -206 15 -31 298 -295
1324 -1230 718 -654 1317 -1195 1332 -1203 41 -21 108 -27 156 -14 51 13 113
66 137 116 24 52 21 135 -7 186 -16 30 -378 366 -1228 1141 -663 604 -1205
1102 -1205 1107 0 5 542 503 1205 1107 850 775 1212 1111 1228 1141 28 51 31
134 7 186 -47 99 -165 148 -267 112z"/>
</g>
</svg>
