<svg xmlns="http://www.w3.org/2000/svg" fill="none" aria-hidden="true" viewBox="0 0 160 160"><path fill="#DCE4E7" d="m67.04 141-64.4-37.2a3.38 3.38 0 0 1 0-5.9l64.4-37.2c1.1-.6 2.4-.6 3.4 0l64.4 37.2c2.3 1.3 2.3 4.6 0 5.9L70.44 141c-1 .6-2.3.6-3.4 0Z"/><path fill="#fff" stroke="#274B5D" stroke-linecap="round" stroke-linejoin="round" stroke-miterlimit="10" d="M135.84 88.5c0-.5-.2-1-.4-1.5-.3-.5-.7-.9-1.2-1.3l-64.5-37.2c-1.1-.6-2.4-.6-3.4 0L1.94 85.7c-.8.5-1.3 1.2-1.6 2 0 0-.6.9-.2 4.6-.1.5 0 1 .2 1.5v.1c.3.6.7 1.2 1.4 1.6l64.6 37.3c1 .6 2.3.6 3.3 0l64.6-37.3c.6-.4 1.1-.9 1.3-1.5.1-.1.1-.2.1-.3v-.1c.1-.4.2-.8.1-1.2.3-1.7.2-3 .1-3.9Z"/><path fill="#fff" stroke="#274B5D" stroke-linecap="round" stroke-linejoin="round" stroke-miterlimit="10" d="M66.34 128.8 1.94 91.6a3.38 3.38 0 0 1 0-5.9l64.4-37.2c1.1-.6 2.4-.6 3.4 0l64.4 37.2c2.3 1.3 2.3 4.6 0 5.9l-64.4 37.2c-1 .6-2.3.6-3.4 0Z"/><path stroke="#274B5D" stroke-linecap="round" stroke-linejoin="round" stroke-miterlimit="10" d="M66.34 128.8 1.94 91.6a3.38 3.38 0 0 1 0-5.9l64.4-37.2c1.1-.6 2.4-.6 3.4 0l64.4 37.2c2.3 1.3 2.3 4.6 0 5.9l-64.4 37.2c-1 .6-2.3.6-3.4 0Z"/><path fill="#DCE4E7" d="M24.54 84.1c14.3 9.6 34.4 20.6 55 31.5.4.2.9-.3 1.2-.5l17-9.6s2.9-4 2.1-4.4l-61.9-25.6c-.3-.1-.7-.1-1 .1l-11.8 5.7c-.8.5-1.4 2.3-.6 2.8Z"/><path fill="#F2F2F2" stroke="#274B5D" stroke-linecap="round" stroke-linejoin="round" stroke-miterlimit="10" d="M33.74 74.7c-1.2-.7-2.3-.8-3.1-.3l-2.7 1.5 6.1 10.7 2.7-1.5c.8-.5 1.3-1.4 1.3-2.8 0-2.8-1.9-6.2-4.3-7.6Z"/><path fill="#F2F2F2" stroke="#274B5D" stroke-linecap="round" stroke-linejoin="round" stroke-miterlimit="10" d="M35.34 83.9c0 2.8-2 3.9-4.4 2.5-2.4-1.4-4.3-4.8-4.3-7.6s2-3.9 4.4-2.5c2.4 1.4 4.3 4.8 4.3 7.6Z"/><path fill="#DCE4E7" stroke="#274B5D" stroke-linecap="round" stroke-linejoin="round" stroke-miterlimit="10" d="M33.14 82.6c0 1.4-1 1.9-2.1 1.2s-2.1-2.4-2.1-3.7c0-1.3 1-1.9 2.1-1.2 1.1.6 2.1 2.3 2.1 3.7Z"/><path fill="#F2F2F2" stroke="#274B5D" stroke-linecap="round" stroke-linejoin="round" stroke-miterlimit="10" d="M43.94 81.1c-1.2-.7-2.3-.8-3.1-.3l-2.7 1.5 6.1 10.7 2.7-1.5c.8-.5 1.3-1.4 1.3-2.8 0-2.8-1.9-6.1-4.3-7.6Z"/><path fill="#F2F2F2" stroke="#274B5D" stroke-linecap="round" stroke-linejoin="round" stroke-miterlimit="10" d="M45.44 90.3c0 2.8-2 3.9-4.4 2.5-2.4-1.4-4.3-4.8-4.3-7.6s2-3.9 4.4-2.5c2.5 1.4 4.4 4.8 4.3 7.6Z"/><path fill="#DCE4E7" stroke="#274B5D" stroke-linecap="round" stroke-linejoin="round" stroke-miterlimit="10" d="M43.24 89c0 1.4-1 1.9-2.1 1.2-1.2-.7-2.1-2.4-2.1-3.7 0-1.4 1-1.9 2.1-1.2 1.2.6 2.1 2.3 2.1 3.7Zm25 12.4.6-23.2-44.1-26.5-.2 23.5 43.7 26.2Z"/><path fill="#DCE4E7" stroke="#274B5D" stroke-linecap="round" stroke-linejoin="round" stroke-miterlimit="10" d="m68.84 78.2 21.8-12.3-.2 23.2-22.2 12.3.6-23.2Z"/><path fill="#fff" stroke="#274B5D" stroke-linecap="round" stroke-linejoin="round" stroke-miterlimit="10" d="M90.64 65.9 45.54 40l-20.8 11.7 44.1 26.5 21.8-12.3Zm-19.6 14.5 18.1-10 12.2 7.4-17.8 10-12.5-7.4Z"/><path fill="#DCE4E7" stroke="#274B5D" stroke-linecap="round" stroke-linejoin="round" stroke-miterlimit="10" d="M83.54 87.8s1 18.2.5 24.6c0 0 13.6-7.1 17.9-10.5 0 0 .3-18.4-.6-24.2l-17.8 10.1Z"/><path fill="#F2F2F2" stroke="#274B5D" stroke-linecap="round" stroke-linejoin="round" stroke-miterlimit="10" d="M76.94 98.7c-1.3-.8-2.5-.8-3.3-.3l-2.9 1.7 6.6 11.5 2.9-1.7c.8-.5 1.4-1.5 1.4-3-.1-3-2.1-6.7-4.7-8.2Z"/><path fill="#F2F2F2" stroke="#274B5D" stroke-linecap="round" stroke-linejoin="round" stroke-miterlimit="10" d="M78.64 108.5c0 3-2.1 4.2-4.7 2.7s-4.6-5.2-4.6-8.1c0-2.9 2.1-4.2 4.7-2.7 2.5 1.5 4.6 5.1 4.6 8.1Z"/><path fill="#DCE4E7" stroke="#274B5D" stroke-linecap="round" stroke-linejoin="round" stroke-miterlimit="10" d="M76.24 107.1c0 1.5-1 2-2.3 1.3-1.3-.7-2.3-2.5-2.3-4s1-2 2.3-1.3c1.3.8 2.3 2.6 2.3 4Z"/><path fill="#F2F2F2" stroke="#274B5D" stroke-linecap="round" stroke-linejoin="round" stroke-miterlimit="10" d="m71.04 80.4-.5 19.6 8.2 5.2-.1 4.3 5.3 3s0-23.1-.5-24.6l-12.4-7.5Z"/><path fill="#DCE4E7" stroke="#274B5D" stroke-linecap="round" stroke-linejoin="round" stroke-miterlimit="10" d="m101.64 80.7-17.9 10 .1 10 18.2-10.2-.4-9.8Z"/><path fill="#fff" stroke="#274B5D" stroke-linecap="round" stroke-linejoin="round" stroke-miterlimit="10" d="m89.04 100.1 9.5-5.4-1.2 7.6-6.9 4.1-1.4-6.3Z"/><path fill="#fff" d="m90.54 106.4 7.1-6-8.1 2.1 8.6-5.1-8.9 2.6"/><path stroke="#274B5D" stroke-linecap="round" stroke-linejoin="round" stroke-miterlimit="10" d="m90.54 106.4 7.1-6-8.1 2.1 8.6-5.1-8.9 2.6"/><path fill="#DCE4E7" d="M118.53 88.4c3.32 0 6-1.52 6-3.4s-2.68-3.4-6-3.4c-3.3 0-6 1.52-6 3.4s2.7 3.4 6 3.4Z"/><path fill="#fff" stroke="#274B5D" stroke-linecap="round" stroke-linejoin="round" stroke-miterlimit="10" d="M124.04 74.1c0 3.4-3.2 8.3-5 10.8-.5.7-1.6.6-2-.2-2.2-4.3-7.7-15.4-7.7-19.1 0-4.7 3.3-6.6 7.3-4.2 4 2.4 7.4 8 7.4 12.7Z"/><path fill="#fff" stroke="#274B5D" stroke-linecap="round" stroke-linejoin="round" stroke-miterlimit="10" d="M119.33 60.1c-1.5-.9-2.9-1.1-4.1-.9-1.5.2-2.9 1.1-3.7 1.7 1.3-.8 3.2-.7 5.2.5 4.1 2.3 7.3 8 7.3 12.7 0 4.7-5.8 11.3-5.8 11.3l2.5-1c.1.3 6-6.3 5.8-11.6 0-4.7-3.1-10.4-7.2-12.7Z"/><path fill="#fff" stroke="#274B5D" stroke-linecap="round" stroke-linejoin="round" stroke-miterlimit="10" d="M118.6 73.58c1.1-.63 1.15-2.62.1-4.44-1.05-1.82-2.8-2.77-3.9-2.14-1.1.64-1.13 2.62-.08 4.44 1.05 1.82 2.79 2.78 3.89 2.14Z"/></svg>