<svg xmlns="http://www.w3.org/2000/svg" fill="none" aria-hidden="true" viewBox="0 0 160 160"><path fill="#DCE4E7" d="m67.04 147-64.4-37.2a3.38 3.38 0 0 1 0-5.9l64.4-37.2c1.1-.6 2.4-.6 3.4 0l64.4 37.2c2.3 1.3 2.3 4.6 0 5.9L70.44 147c-1 .6-2.3.6-3.4 0Z"/><path fill="#fff" stroke="#274B5D" stroke-linecap="round" stroke-linejoin="round" stroke-miterlimit="10" d="M135.84 94.5c0-.5-.2-1-.4-1.5-.3-.5-.7-.9-1.2-1.3l-64.5-37.1c-1.1-.6-2.4-.6-3.4 0L1.94 91.7c-.8.5-1.3 1.2-1.6 2 0 0-.6.9-.2 4.6-.1.5 0 1 .2 1.5v.1c.3.6.7 1.2 1.4 1.6l64.6 37.3c1 .6 2.3.6 3.3 0l64.6-37.3c.6-.4 1.1-.9 1.3-1.5.1-.1.1-.2.1-.3v-.1c.1-.4.2-.8.1-1.2.3-1.6.2-2.9.1-3.9Z"/><path fill="#fff" stroke="#274B5D" stroke-linecap="round" stroke-linejoin="round" stroke-miterlimit="10" d="M66.34 134.8 1.94 97.7a3.38 3.38 0 0 1 0-5.9l64.4-37.2c1.1-.6 2.4-.6 3.4 0l64.4 37.2c2.3 1.3 2.3 4.6 0 5.9l-64.4 37.1c-1 .6-2.3.6-3.4 0Z"/><path fill="#DCE4E7" d="M70.64 117.8s35.2-18.4 53.3-31.5l-24.1-14.2-47.9 34.8 18.7 10.9Z"/><path stroke="#274B5D" stroke-linecap="round" stroke-linejoin="round" stroke-miterlimit="10" d="M66.34 134.8 1.94 97.7a3.38 3.38 0 0 1 0-5.9l64.4-37.2c1.1-.6 2.4-.6 3.4 0l64.4 37.2c2.3 1.3 2.3 4.6 0 5.9l-64.4 37.1c-1 .6-2.3.6-3.4 0Z"/><path fill="#fff" stroke="#274B5D" stroke-linecap="round" stroke-linejoin="round" stroke-miterlimit="10" d="m70.64 117.8-41.9-24.4 11.2-6.5c6.4-3.7 11.2-9.6 13.6-16.5l4.9-14.2c1.9-5.4 5.6-10 10.5-12.8l12.6-7.4 42.3 24.2-13.5 7.8c-4.9 2.8-8.6 7.3-10.3 12.7l-4.5 13.7c-2.4 7.3-7.5 13.4-14.1 17.3l-10.8 6.1Z"/><path stroke="#274B5D" stroke-linecap="round" stroke-linejoin="round" stroke-miterlimit="10" d="M65.24 108c-.8-.6-1.3-1.3-1.2-2 0-.7.6-1.4 1.5-1.8 1.8-.9 4.5-.7 6.2.4.8.6 1.3 1.3 1.2 2 0 .7-.6 1.4-1.5 1.8-.8.4-1.7.6-2.6.6-1.4-.1-2.7-.4-3.6-1Z"/><path fill="#DCE4E7" stroke="#274B5D" stroke-linecap="round" stroke-linejoin="round" stroke-miterlimit="10" d="m111.94 64.4-.2-.1-33.5-19.2 2.6-1.5.2.1 33.5 19.2-2.6 1.5Zm3.9-2.6L77.94 40l2.6-1.5.2.1 37.6 21.7-2.5 1.5Zm-8.3 5.1-26.6-15.2 2.6-1.5 26.6 15.2-2.6 1.5Z"/><path fill="#fff" d="M60.54 102.5 40.24 91l1.9-1.1 20.2 11.5-1.8 1.1Z"/><path fill="#DCE4E7" stroke="#274B5D" stroke-linecap="round" stroke-linejoin="round" stroke-miterlimit="10" d="m60.54 102.9-.2-.1L39.54 91l2.6-1.5.2.1 20.8 11.8-2.6 1.5Zm41.2-31.1-30.8-17.6.3-.3c.4-.5.8-.9 1.3-1.4l.2-.2 30.8 17.5-.3.4c-.4.4-.8.9-1.2 1.4l-.3.2Zm-2.3 3.8-30.8-17.5.2-.3c.3-.5.6-1.1 1-1.6l.2-.3 30.8 17.5-.2.3c-.3.5-.7 1-.9 1.5l-.3.4Z"/><path stroke="#274B5D" stroke-linecap="round" stroke-linejoin="round" stroke-miterlimit="10" d="m66.54 51.7-2.4-1.5.3-.3c.4-.5.8-.9 1.3-1.4l.2-.2 2.4 1.5-.3.3c-.4.4-.8.9-1.2 1.4l-.3.2Zm-2.3 3.8-2.3-1.4.2-.3c.3-.5.6-1.1 1-1.6l.2-.3 2.3 1.4-.2.3c-.3.5-.7 1-.9 1.5l-.3.4Z"/><path fill="#DCE4E7" stroke="#274B5D" stroke-linecap="round" stroke-linejoin="round" stroke-miterlimit="10" d="M95.54 85.5 65.04 68l.9-2.5L96.44 83l-.9 2.5Zm-1.4 4.3-30.5-17.5.9-2.5 30.5 17.5-.9 2.5Zm-1.5 4.1-30.5-17.5.9-2.5 30.5 17.5-.9 2.5Z"/><path stroke="#274B5D" stroke-linecap="round" stroke-linejoin="round" stroke-miterlimit="10" d="m61.04 65.8-2.4-1.5.9-2.5 2.4 1.5-.9 2.5Zm-1.3 4.3-2.4-1.5.9-2.5 2.4 1.5-.9 2.5Zm-1.6 4-2.4-1.5.9-2.5 2.4 1.5-.9 2.5Zm31.7 30.1-41.7-24.3m40.1 26.5-41.6-24.8m53.9-2.2a408.9 408.9 0 0 1-42.1-22.7m27.8 51.6-41.4-24.9m42 12.4c-11.1-7.1-22-13.5-32.6-19"/><path fill="#fff" stroke="#274B5D" stroke-linecap="round" stroke-linejoin="round" stroke-miterlimit="10" d="m60.04 95-27.4-37.4c1.5.7 6.1-2.5 4.7-3.4l27.1 37c1.9 2.4-2.8 5.8-4.4 3.8Z"/><path stroke="#274B5D" stroke-linecap="round" stroke-linejoin="round" stroke-miterlimit="10" d="M36.14 62.4c1.9 1.1 5.1-1.1 4.9-3.2l1.6-.9 10.5 14.9"/><path fill="#fff" stroke="#274B5D" stroke-linecap="round" stroke-linejoin="round" stroke-miterlimit="10" d="m64.94 91.8 2.5 9-7-5.5c3 .2 4-1.1 4.5-3.5Zm-32.3-34.2c.4-2.1 2.4-3.4 4.7-3.4 0 0 .7.5-.1 1.2-.7.8-1.9 1.8-3 2.2-1 .4-1.6 0-1.6 0Z"/></svg>