<svg xmlns="http://www.w3.org/2000/svg" fill="none" aria-hidden="true" viewBox="0 0 160 160"><path fill="#DCE4E7" d="m64.52 148.37-61.98-35.8a3.26 3.26 0 0 1 0-5.69l61.98-35.8a3.3 3.3 0 0 1 3.27 0l61.99 35.8a3.26 3.26 0 0 1 0 5.68l-61.99 35.8a3.3 3.3 0 0 1-3.27 0Z"/><path fill="#fff" stroke="#274B5D" stroke-linecap="round" stroke-linejoin="round" stroke-miterlimit="10" d="M130.64 97.84c0-.48-.19-.97-.38-1.45a4.7 4.7 0 0 0-1.16-1.25l-61.98-35.7a3.3 3.3 0 0 0-3.27 0L1.86 95.13a3.74 3.74 0 0 0-1.54 1.93s-.57.86-.19 4.43c-.1.48 0 .96.2 1.44v.1c.28.57.67 1.15 1.34 1.53l62.18 35.9a3.1 3.1 0 0 0 3.17 0l62.18-35.9a3 3 0 0 0 1.25-1.44c.1-.1.1-.2.1-.29v-.1c.1-.38.19-.76.1-1.15a9.7 9.7 0 0 0 0-3.75Z"/><path fill="#fff" stroke="#274B5D" stroke-linecap="round" stroke-linejoin="round" stroke-miterlimit="10" d="M63.85 136.63 1.86 100.91a3.26 3.26 0 0 1 0-5.68l61.99-35.8a3.3 3.3 0 0 1 3.27 0l61.98 35.8a3.26 3.26 0 0 1 0 5.68l-61.98 35.8a3.57 3.57 0 0 1-3.27-.1Z"/><path fill="#DCE4E7" d="m32.18 107.27 52.75-25.31 20.11 9.91-56.4 28.3-19.44-10.78 2.98-2.12Z"/><path fill="#fff" stroke="#274B5D" stroke-linecap="round" stroke-linejoin="round" stroke-miterlimit="10" d="m28.91 84.94.29 24.45 19.44 10.78.39-25.5-20.12-9.73Zm18.1 32.05-16.46-8.85V87.92l16.84 8.57-.39 20.5Zm1.63 3.18 2.02-1.25V96.39l54.38-27.14v22.62l1.64-.77V66.27l-57.65 28.4-.39 25.5Z"/><path fill="#DCE4E7" stroke="#274B5D" stroke-linecap="round" stroke-linejoin="round" stroke-miterlimit="10" d="m105.04 91.87-20.11-9.91v-2.7l1.54-.77v1.73l16.94 8.38V70.02l1.63-.77v22.62Z"/><path fill="#DCE4E7" stroke="#274B5D" stroke-linecap="round" stroke-linejoin="round" stroke-miterlimit="10" d="m88.1 77.72.1 1.64 15.2 7.6v1.64l-16.94-8.38V78.5l1.64-.77ZM32.18 88.6v18.67l14.83 7.6V117l-16.37-8.85-.1-20.31 1.64.77Z"/><path fill="#fff" stroke="#274B5D" stroke-linecap="round" stroke-linejoin="round" stroke-miterlimit="10" d="m28.14 81.28 4.14 2.12v3.18l-4.14-2.02v-3.28Zm5.58 2.89 4.14 2.02v3.08l-4.14-2.02v-3.08Zm5.58 2.79v2.98l4.14 2.03v-2.9l-4.14-2.1Zm5.59 5.68v-2.8l4.14 2.13v2.7l-4.14-2.03Z"/><path fill="#fff" stroke="#274B5D" stroke-linecap="round" stroke-linejoin="round" stroke-miterlimit="10" d="m28.14 81.28 58.42-29.26 4.24 2.12L32.28 83.4l-4.14-2.12Zm5.58 2.89 58.52-29.26 4.14 2.02L37.86 86.2l-4.14-2.02Zm5.58 2.79L97.82 57.7l4.14 2.12-58.52 29.26-4.14-2.12Zm5.59 2.89 58.52-29.26 4.13 2.02-58.51 29.36-4.14-2.12Z"/><path fill="#DCE4E7" stroke="#274B5D" stroke-linecap="round" stroke-linejoin="round" stroke-miterlimit="10" d="M107.55 62.61v3.27L49.03 94.66v-2.7l58.52-29.35Zm-64.1 29.36v-2.9l58.51-29.25v1.44L44.9 89.85v2.79l-1.44-.67Zm-5.59-2.7V86.2l58.52-29.26v1.54L39.3 86.97v2.97l-1.44-.67Zm-5.58-2.69V83.4L90.8 54.14v1.44L33.72 84.17v3.08l-1.44-.67Z"/><path fill="#fff" stroke="#274B5D" stroke-linecap="round" stroke-linejoin="round" stroke-miterlimit="10" d="M106.97 50.77c6.83.96 12.7-1.06 12.7-9.72 0-9.53-6.64-21.08-14.92-25.8-8.27-4.7-14.91-.86-14.91 8.57 0 7.03 3.65 15.11 8.85 20.8l-1.25 3.94c0 .1 1.83 1.15 9.53 2.21Z"/><path fill="#DCE4E7" stroke="#274B5D" stroke-linecap="round" stroke-linejoin="round" stroke-miterlimit="10" d="M123.43 38.84c0-9.53-6.65-21.08-14.92-25.8-3.08-1.82-6.07-2.4-8.47-1.82-4.91.96-7.03 3.94-7.03 3.94 2.7-2.5 7.03-2.7 11.84.1 8.28 4.71 14.92 16.26 14.92 25.8 0 4.42-1.54 7.11-4.04 8.56a14.69 14.69 0 0 0 4.62-2.89c.1-.1.29-.2.38-.29.29-.29.48-.38.48-.38 1.35-1.54 2.22-3.95 2.22-7.22Z"/><path fill="#DCE4E7" stroke="#274B5D" stroke-linecap="round" stroke-linejoin="round" stroke-miterlimit="10" d="m100.42 23.82 7.7 4.53a4.2 4.2 0 0 1 1.92 2.7l2.03 11.16c.29 1.44-.68 2.02-2.02 1.25L98.5 36.82c-1.26-.77-2.22-2.5-2.03-3.56l1.93-8.95c.29-.77 1.06-1.06 2.02-.49Z"/><path stroke="#274B5D" stroke-linecap="round" stroke-linejoin="round" stroke-miterlimit="10" d="M101.48 26.23V22.1c0-1.73 1.25-2.5 2.8-1.54a6 6 0 0 1 2.78 4.72v4.14"/><path fill="#fff" stroke="#274B5D" stroke-linecap="round" stroke-linejoin="round" stroke-miterlimit="10" d="M84.15 31.14 68 22.28l1.82 4.62-10.58-1.73 1.54 4.24 10.58 1.63L73 35.28l11.16-4.14Z"/><path fill="#fff" stroke="#274B5D" stroke-linecap="round" stroke-linejoin="round" stroke-miterlimit="10" d="M86.17 28.54 70.1 19.78l1.73 4.52-10.58-1.63 1.63 4.14 10.59 1.63 1.64 4.33 11.06-4.23Z"/><path fill="#DCE4E7" stroke="#274B5D" stroke-linecap="round" stroke-linejoin="round" stroke-miterlimit="10" d="m70.1 19.78-2.12 2.5.68 1.54 3.17.48-1.73-4.52Zm-8.85 2.89-2.02 2.5 1.54 4.24 10.58 1.63L73 35.28l11.16-4.14 2.03-2.6-11.07 4.23-1.64-4.33-10.59-1.63-1.63-4.14Z"/><path stroke="#274B5D" stroke-linecap="round" stroke-linejoin="round" stroke-miterlimit="10" d="m62.88 26.8-2.11 2.6m12.7-.96-2.12 2.6m3.75 1.73-2.1 2.5"/></svg>