<svg xmlns="http://www.w3.org/2000/svg" viewBox="0 0 534.69 89.27"><defs><style>.cls-1{fill:#221f20;}</style></defs><title>Ресурс 2</title><g id="Слой_2" data-name="Слой 2"><g id="Logo"><polygon class="cls-1" points="167.29 19.01 133.79 19.01 133.79 86.95 113.73 86.95 113.73 19.01 80.35 19.01 80.35 0 167.29 0 167.29 19.01"/><path class="cls-1" d="M244.09,19H203.51V34h40.58c3.47,0,6.49-2.68,6.49-7.43s-3-7.54-6.49-7.54M270.52,87H246.05l-30.6-34H203.51V87H183.57V0h60.52a26.49,26.49,0,0,1,0,53h-4Z"/><rect class="cls-1" x="291.2" width="19.94" height="86.95"/><path class="cls-1" d="M53.91,0H33L0,87H86.83ZM28.34,68l15-39.55L58.4,68Z"/><path class="cls-1" d="M402.68,0,356.77,53.32a25.18,25.18,0,0,1-1.14-7.53V0H335.69V45.79a43.47,43.47,0,1,0,86.94,0V0ZM379.16,70.25A22.64,22.64,0,0,1,369.25,68l33.44-38.84V45.79C402.69,59.47,391.91,70.25,379.16,70.25Z"/><polygon class="cls-1" points="534.69 86.95 514.75 86.95 514.75 40.17 501.06 65.7 481.22 65.7 467.62 40.29 467.62 86.95 447.68 86.95 447.68 0 467.62 0 491.14 44.11 514.75 0 534.69 0 534.69 86.95"/></g></g></svg>