<?xml version="1.0" encoding="UTF-8"?> <svg xmlns="http://www.w3.org/2000/svg" width="179" height="68" viewBox="0 0 179 68" fill="none"> <g clip-path="url(#clip0_38_3292)"> <path d="M139 16.0791C138.2 16.0791 137.6 15.9791 137 15.9791C135.1 15.8791 135.1 14.2791 135.1 13.7791C135.1 13.3791 135.4 10.9791 135.6 9.0791C131.9 9.0791 128.6 9.4791 128 10.7791C127.4 12.1791 126.9 17.1791 127 18.0791C127.1 18.6791 126.3 21.2791 129.2 21.4791C130.7 21.5791 135.3 20.7791 139.8 19.8791C139.7 19.2791 139.6 18.8791 139.5 18.6791C139.3 17.9791 139 16.9791 139 16.0791Z" fill="#78A821"></path> <path d="M149.4 11.7788C149.4 11.8788 149.5 11.9788 149.5 12.1788C154.5 12.1788 161.1 12.4788 166.6 12.8788C166.8 11.4788 166.1 9.97883 165.9 9.37883C165.6 8.47883 163.7 3.77883 162.1 1.17883C160.5 -1.62118 145.7 1.77883 139.7 3.97883C136.2 5.27883 136 6.27883 135.8 7.27883C135.7 7.57883 135.6 8.27882 135.5 9.07882C138.2 9.07882 141.1 9.27882 143.3 9.57882C145.9 9.97883 149 10.4788 149.4 11.7788Z" fill="#AFCB37"></path> <path d="M176.5 13.8793C174.7 13.4793 171 13.0793 166.6 12.7793C166.5 13.7793 165.8 14.7793 164.2 15.2793C162.1 15.9793 156.4 16.2793 150.4 16.2793C150.4 16.9793 150.3 17.5793 149.3 17.8793C148.1 18.1793 143.9 19.0793 139.6 19.9793C140.3 22.8793 141.9 29.5793 143 31.7793C144.8 35.2793 164.3 30.5793 170.4 28.4793C174.6 27.0793 175.1 26.0793 175.6 24.8793C176.1 23.6793 178.6 18.1793 178.7 17.5793C179.1 16.1793 178.9 14.3793 176.5 13.8793Z" fill="#86BC25"></path> <path d="M150.3 15.5791C150.4 15.7791 150.4 16.0791 150.4 16.2791C156.3 16.2791 162.1 15.9791 164.2 15.2791C165.8 14.6791 166.4 13.7791 166.6 12.7791C161.1 12.3791 154.5 12.0791 149.5 12.0791C149.9 13.3791 150.3 15.2791 150.3 15.5791Z" fill="#78A821"></path> <path d="M136.9 15.9791C137.5 15.9791 138.2 16.0791 138.9 16.0791C138.8 14.4791 139.5 12.9791 142.5 12.3791C143.7 12.0791 146.3 11.9791 149.4 12.0791C149.4 11.9791 149.3 11.7791 149.3 11.6791C148.9 10.3791 145.8 9.8791 143.3 9.5791C141.1 9.2791 138.2 9.0791 135.5 9.0791C135.2 10.8791 135 13.3791 135 13.7791C135 14.2791 135 15.8791 136.9 15.9791Z" fill="#5D9021"></path> <path d="M150.5 16.3787C146.3 16.3787 142.1 16.2787 139 16.1787C139 17.0787 139.3 17.9787 139.5 18.8787C139.5 19.0787 139.6 19.5787 139.8 20.0787C144.1 19.1787 148.3 18.2787 149.5 17.9787C150.3 17.6787 150.5 16.9787 150.5 16.3787Z" fill="#5D9021"></path> <path d="M149.5 12.0791C146.4 12.0791 143.8 12.1791 142.6 12.3791C139.5 12.9791 138.9 14.4791 139 16.0791C142.1 16.1791 146.3 16.2791 150.5 16.2791C150.5 15.9791 150.4 15.7791 150.4 15.5791C150.3 15.2791 149.9 13.3791 149.5 12.0791Z" fill="#3D701C"></path> <path d="M91.7002 23.4789V23.5789L92.0002 23.4789V23.3789L91.7002 23.4789Z" fill="black"></path> <path d="M132.8 34.1787C132.6 34.1787 132.3 34.2787 131.9 34.5787C131.4 35.0787 130.9 35.9787 130.2 37.0787C129.7 37.1787 129.5 37.9787 128.5 38.9787C128.7 38.7787 129.2 37.3787 129.3 36.9787C129.6 36.4787 130.2 35.9787 130.4 35.6787C130.4 35.5787 130.3 35.4787 130.2 35.3787C130.6 35.0787 131 34.4787 131.6 33.7787C132.3 32.9787 132.5 31.9787 132.8 31.6787C133.1 30.8787 134.3 29.6787 135.1 28.0787C136.1 26.1787 136.6 25.2787 136.8 25.2787C136.9 25.2787 137.3 25.1787 137.4 25.1787C137.5 25.1787 137.7 25.2787 137.9 25.3787C138.1 25.9787 138.3 27.0787 138.3 28.5787C138.3 28.8787 138.3 29.1787 138.2 29.7787C138.1 30.3787 138.1 30.7787 138.1 31.0787C138.1 32.1787 137.9 32.8787 137.6 33.1787C137.8 33.4787 137.9 33.9787 137.9 34.5787C137.9 35.6787 137.7 36.2787 137.2 36.2787C137 36.2787 136.6 36.0787 135.9 35.6787C135.9 35.0787 136.1 33.9787 136.3 32.4787C136.6 30.9787 136.7 29.8787 136.7 29.1787V28.8787L136.5 27.9787C135.7 28.9787 135.2 30.2787 134.3 32.0787L132.8 34.1787Z" fill="black"></path> <path d="M102.8 27.3792C102.4 27.6792 101.9 28.2792 101.4 29.1792C100.8 30.1792 100.3 30.8792 100 31.1792C99.3003 32.7792 98.9003 33.8792 98.9003 34.3792V35.1792C99.1003 35.0792 99.3003 34.9792 99.7003 34.8792C100.1 34.4792 100.8 33.4792 101.6 31.6792C102.5 29.8792 102.9 28.7792 102.9 28.1792C102.9 27.9792 102.8 27.4792 102.8 27.3792ZM108.9 26.5792C108.6 26.5792 107.7 27.0792 107.4 27.0792C107.2 27.0792 106.8 26.9792 106.6 26.9792C106.4 26.9792 105.9 27.4792 105.7 27.4792C105.5 27.4792 105.2 27.5792 105 27.4792C104.5 27.0792 104.3 27.2792 104.3 27.2792C104.2 28.2792 104.1 28.9792 104 29.4792C103.8 30.3792 103.5 31.0792 103.1 31.3792C103.1 31.4792 103.2 31.5792 103.4 31.5792C102.7 32.7792 102.1 33.8792 101.5 35.0792C100.6 36.3792 99.6003 37.0792 98.5003 37.0792C98.3003 37.0792 98.0003 36.8792 97.7003 36.4792C97.4003 36.0792 97.3003 35.7792 97.3003 35.4792C97.3003 35.3792 97.4003 35.1792 97.7003 34.9792C97.6003 34.8792 97.4003 34.7792 97.3003 34.7792C97.4003 34.1792 97.7003 33.3792 98.1003 32.1792L98.2003 32.3792C98.4003 32.1792 98.6003 31.5792 99.0003 30.5792C99.3003 29.7792 99.7003 29.2792 100.2 29.1792C100.2 28.9792 100.1 28.8792 99.9003 28.8792C100.1 28.6792 100.5 28.4792 101 28.0792C101 27.9792 100.9 27.8792 100.7 27.7792C101.3 26.9792 102.2 26.2792 102.1 25.1792C104.8 25.0792 104.7 25.5792 104.7 25.5792C105.1 25.7792 107.2 26.0792 107.5 26.0792C107.8 26.0792 108.6 25.9792 108.9 25.9792C108.9 26.0792 109 26.5792 108.9 26.5792Z" fill="black"></path> <path d="M117.2 30.6789C116.3 31.4789 115.9 31.9789 115.7 32.1789C115.4 32.2789 115.2 32.5789 114.7 32.8789C114 33.3789 113.7 33.6789 113.6 33.7789C113.4 33.8789 113.2 33.9789 113 34.0789C113 34.0789 113 34.1789 113 34.3789C112.8 34.4789 112.2 34.7789 111.2 35.4789C110.4 36.0789 109.6 36.3789 109 36.3789C108.9 36.3789 108.9 36.4789 108.8 36.4789C108.2 36.4789 107.5 35.5789 107.5 34.8789C107.5 34.3789 108 33.2789 108.9 31.5789C109.8 29.9789 110.5 28.9789 110.9 28.4789V27.1789C110.9 27.0789 110.8 26.8789 110.6 26.5789C110.5 26.5789 109.8 26.1789 109.2 26.3789C108.7 26.5789 108.4 26.6789 108.3 26.6789L108.1 26.2789C108.1 26.2789 108.3 26.1789 108.5 25.9789C108.7 25.7789 109.2 25.4789 109.5 24.9789C109.5 24.5789 109.6 24.4789 109.5 23.6789C109.7 23.4789 110.1 23.3789 110.5 23.3789C110.9 23.3789 111.2 23.4789 111.3 23.7789C111.4 24.0789 111.5 24.5789 111.7 25.1789C111.7 25.2789 111.9 25.5789 112.3 26.0789C112.6 25.9789 113.4 25.1789 113.5 25.1789C113.7 25.0789 114.5 25.3789 114.5 25.5789C114.5 25.5789 112.7 28.7789 112.1 29.1789C111.9 29.3789 111.7 30.3789 110.8 31.6789C110 32.9789 109.6 33.7789 109.6 33.9789C109.6 34.1789 109.7 34.2789 109.9 34.2789C110.2 34.2789 110.4 34.1789 110.6 34.0789C111 33.7789 111.2 33.5789 112.5 33.1789C112.5 32.8789 112.8 32.5789 113.3 32.1789C113.7 31.9789 114 31.6789 114.4 31.4789C114.4 31.4789 114.5 31.3789 115.2 30.9789C115.7 30.7789 115.9 30.4789 116 30.1789C116 30.2789 116 30.2789 116.2 30.2789C116.4 30.2789 116.8 29.9789 117.4 29.4789C118.1 28.9789 118.4 28.5789 118.6 28.3789C118.6 28.5789 118.8 28.6789 119 28.6789C118.8 29.4789 117.9 30.0789 117.2 30.6789Z" fill="black"></path> <path d="M146.3 27.1789C145.8 27.4789 144.9 28.2789 144.2 29.1789C143.4 30.1789 142.8 30.8789 142.5 31.1789C141.6 32.7789 141.1 33.8789 141.1 34.3789L141.3 35.1789C141.5 35.0789 141.9 35.3789 142.7 34.8789C143.3 34.4789 144.1 33.4789 145.1 31.6789C146.2 29.8789 146.7 28.6789 146.7 28.1789C146.8 27.6789 146.3 27.3789 146.3 27.1789ZM152.3 25.8789C152.1 25.8789 151.6 26.1789 151.4 26.1789C151.1 26.1789 150.4 26.1789 150.1 26.1789C149.9 26.1789 149.6 26.2789 149.2 26.6789C148.6 27.0789 148.4 27.3789 148.4 27.3789C148.3 28.3789 148.1 29.0789 148 29.5789C147.7 30.4789 147.3 31.1789 146.8 31.4789C146.8 31.5789 147 31.6789 147.1 31.6789C146.3 32.8789 145.5 33.9789 144.6 35.1789C143.4 36.4789 142.2 37.1789 140.7 37.1789C140.4 37.1789 140.1 36.9789 139.7 36.5789C139.3 36.1789 139.2 35.8789 139.2 35.5789C139.2 35.4789 139.4 35.2789 139.7 35.0789C139.6 34.9789 139.4 34.8789 139.1 34.8789C139.3 34.2789 139.6 33.4789 140.1 32.2789L140.2 32.4789C140.4 32.2789 140.8 31.6789 141.3 30.6789C141.7 29.8789 142.2 29.3789 142.8 29.2789C142.8 29.0789 142.7 28.9789 142.4 28.9789C142.7 28.7789 143.2 28.5789 143.8 28.1789C143.8 28.0789 143.7 27.9789 143.5 27.8789C144.3 27.0789 145.4 26.3789 145.3 25.2789C148.7 25.1789 150.4 25.5789 150.5 25.0789C150.6 24.7789 151.7 25.1789 152.1 25.1789C152.5 25.1789 152.8 24.8789 153.1 24.8789C153.4 24.9789 152.7 25.8789 152.3 25.8789Z" fill="black"></path> <path d="M156.6 24.9785L156.5 25.0785C156.4 25.3785 155.9 26.2785 155.2 27.9785C155.8 27.5785 156.4 27.0785 157.1 26.4785C158.4 25.4785 158.9 24.5785 158.9 24.3785C158.8 24.3785 158.6 24.2785 158.4 24.1785C158.2 24.0785 158 24.0785 157.9 24.0785C157.8 24.0785 157.7 24.1785 157.6 24.1785C157.4 24.1785 157.3 24.0785 157.3 23.9785C157.3 23.9785 157.2 23.9785 157.1 24.0785C157.1 24.1785 157.1 24.1785 157.1 24.1785C157.1 24.1785 157.1 24.2785 156.9 24.3785H156.8C156.8 24.3785 156.8 24.4785 156.7 24.4785C156.6 24.7785 156.6 24.8785 156.6 24.9785ZM153.9 31.2785C153.7 31.7785 153.6 32.1785 153.6 32.2785V32.6785C153.8 32.6785 154 32.5785 154.3 32.4785L154.7 32.0785C154.9 31.8785 155.1 31.7785 155.3 31.7785C155.3 31.7785 155.3 31.7785 155.4 31.7785C155.5 31.6785 155.5 31.5785 155.6 31.4785C155.8 31.3785 156.2 31.1785 157 30.8785C157.8 30.5785 158.2 30.3785 158.5 30.3785C158.6 30.3785 158.7 30.4785 158.7 30.4785C158.7 30.4785 158.8 30.4785 158.8 30.3785H158.9C158.8 30.1785 158.6 29.9785 158.3 29.7785C158 29.5785 157.6 29.4785 157.2 29.4785C157 29.4785 156.6 29.5785 155.9 29.8785C155.9 29.8785 154.9 30.2785 154.4 30.2785H154.3C154.2 30.2785 154.2 30.2785 154.1 30.2785C154.2 30.4785 154.1 30.8785 153.9 31.2785ZM152.2 35.0785C152 35.4785 151.9 35.7785 151.9 35.8785V36.1785H152C152.2 36.1785 152.6 36.0785 153.4 35.8785C154.1 35.6785 154.6 35.4785 154.8 35.3785C156.5 34.5785 157.6 34.0785 158.4 33.2785V32.9785L158.5 32.8785C158.6 32.7785 158.8 32.5785 159 32.4785C159 32.3785 159.1 32.1785 159.2 31.9785C159.3 31.7785 159.3 31.6785 159.3 31.5785C159.3 31.5785 159.3 31.4785 159.3 31.3785C158.2 31.5785 156.9 32.0785 155.5 32.7785C155.1 32.9785 154.4 33.3785 153.6 33.6785C153.5 34.0785 153.2 34.3785 152.6 34.5785H152.5C152.4 34.7785 152.3 34.8785 152.2 35.0785ZM151.4 37.3785C151.1 37.3785 150.8 37.1785 150.6 36.8785C150.3 36.5785 150.1 36.3785 150.1 35.9785C150.1 35.6785 150.3 35.3785 150.7 34.7785C150.9 34.4785 151 34.3785 151.1 34.2785C151.2 34.1785 151.3 34.0785 151.4 34.0785C151.4 34.0785 151.4 34.0785 151.5 34.0785H151.6C151.7 33.9785 151.7 33.7785 151.8 33.5785C152 33.0785 152.1 32.7785 152.2 32.5785C152.2 32.2785 152.3 31.8785 152.5 31.4785C152.6 31.1785 152.7 30.9785 152.8 30.9785C152.8 30.8785 152.8 30.7785 152.8 30.6785C152.8 30.6785 152.8 30.6785 152.8 30.5785C152.8 30.4785 152.8 30.3785 152.9 30.3785C153.1 30.0785 153.3 29.5785 153.6 28.9785C153.8 28.5785 153.9 28.1785 154.1 27.6785C154.3 27.2785 154.5 26.8785 154.7 26.5785C154.7 26.2785 154.8 25.9785 155.1 25.4785C155.3 24.9785 155.4 24.6785 155.4 24.5785V24.2785H155.3C155.3 24.2785 155 24.3785 154.6 24.4785C154.2 24.5785 154 24.6785 153.8 24.6785C153.8 24.6785 153.8 24.6785 153.7 24.6785H153.6C153.6 24.6785 153.6 24.6785 153.5 24.6785L153.6 24.7785L153.3 25.0785C153.2 25.1785 153.2 25.1785 153.1 25.2785H153C152.9 25.5785 152.8 25.6785 152.8 25.8785L152.9 26.2785H152.6C152.3 26.2785 152 26.1785 151.6 25.9785C151.3 25.8785 151.2 25.4785 151.2 25.2785C151.2 25.0785 151.2 24.8785 151.2 24.8785C151.2 24.5785 151.4 24.3785 151.7 24.1785C151.9 23.9785 152.1 23.8785 152.3 23.7785C152.6 23.6785 152.8 23.5785 153.1 23.5785C153.2 23.4785 153.3 23.3785 153.5 23.3785H153.6C153.7 23.3785 153.7 23.2785 153.8 23.1785C154 23.0785 154.3 23.0785 154.7 22.9785C155.1 22.9785 155.4 22.8785 155.5 22.7785L155.6 22.6785C155.7 22.5785 155.8 22.4785 156 22.4785C156.2 22.4785 156.4 22.5785 156.7 22.6785C157 22.7785 157.2 22.7785 157.4 22.7785C157.5 22.7785 157.8 22.7785 157.9 22.7785C158.8 22.8785 159.6 23.1785 160.2 23.6785L160.3 23.7785V23.8785C160.3 23.9785 160.3 23.9785 160.3 24.0785C160.3 24.1785 160.3 24.1785 160.2 24.2785C160.1 24.4785 160 24.7785 159.8 25.1785L159.7 25.2785H159.6H159.5C159.4 25.3785 159.4 25.5785 159.3 25.7785C159.2 25.9785 159 26.1785 158.7 26.4785C158.5 26.6785 158.3 26.8785 158.1 27.0785C158.1 27.0785 157.8 27.3785 157.1 27.8785C156.9 27.9785 156.8 28.0785 156.7 28.1785C156.8 28.1785 156.9 28.1785 157 28.1785H157.1C157.8 28.1785 158.5 28.3785 159 28.6785C159.1 28.7785 159.4 28.9785 159.7 29.2785C160 29.4785 160.1 29.6785 160.2 29.6785C160.3 29.6785 160.4 29.7785 160.4 29.7785C160.4 29.7785 160.4 29.7785 160.4 29.6785L160.5 29.5785H160.6C161.3 29.4785 164.8 29.2785 165.5 29.2785L166.3 29.1785V29.2785L164.2 29.7785C164.1 29.8785 164.1 29.8785 164.1 29.8785C164.1 29.8785 164.1 29.8785 164 29.8785H163.9C163.8 29.8785 163.7 29.8785 163.5 29.8785C163.3 29.8785 163 29.9785 162.8 29.9785C162.7 30.0785 162.6 30.0785 162.6 30.1785C162.4 30.2785 162 30.3785 161.4 30.4785C161 30.5785 160.7 30.6785 160.4 30.7785C160.4 31.0785 160.4 31.3785 160.3 31.6785C160.2 32.0785 160.1 32.3785 159.9 32.6785C159.8 32.7785 159.7 32.8785 159.6 33.0785C158.9 33.7785 158.4 34.2785 158 34.5785C157.3 35.0785 156.9 35.1785 156.3 35.3785C156.2 35.3785 156 35.4785 155.9 35.5785C155.6 35.7785 155.5 35.8785 155.4 35.8785L155.2 35.9785L155.1 35.8785C155 35.9785 154.8 36.0785 154.5 36.1785C154.2 36.2785 154 36.3785 153.9 36.4785V36.5785H153.8H153.6C153.6 36.5785 153.6 36.5785 153.5 36.5785C153.5 36.5785 153.4 36.6785 153.3 36.6785H153.2H153.1C153.1 36.6785 153 36.6785 153 36.7785C152.9 36.8785 152.9 36.8785 152.8 36.8785V36.9785H152.6C152.6 36.9785 152.6 36.9785 152.5 36.9785C152.4 36.9785 152.2 36.9785 151.9 37.0785C151.9 37.2785 151.6 37.3785 151.4 37.3785Z" fill="black"></path> <path d="M120.7 31.0787C120.7 31.0787 121 31.0787 121 31.2787C121 31.3787 120.8 31.5787 120.3 31.7787L120.1 31.5787C120 31.8787 119.8 32.0787 119.5 32.4787C119.2 32.8787 118.9 33.0787 118.8 33.0787C118.7 33.3787 118.3 33.7787 117.7 34.1787C117.1 34.5787 116.6 34.8787 116.3 34.8787C116.3 34.5787 116.1 34.2787 116.4 33.9787C116.6 33.6787 116.7 33.3787 116.7 33.2787C116.7 33.1787 116.7 33.1787 116.6 33.0787C116.7 32.9787 117 32.7787 117 32.6787C117.2 32.3787 117.7 31.2787 119.5 29.3787C119.6 29.2787 119.9 29.1787 119.9 29.1787L120.4 28.4787C120.7 28.1787 120.7 28.0787 121 28.0787C121.2 28.0787 121.3 27.7787 121.4 27.6787C121.6 27.7787 121.9 27.7787 122 27.6787C121.9 27.8787 121.9 28.0787 122.1 28.1787C122.1 28.5787 121.9 29.0787 121.5 29.6787C121 30.5787 120.7 31.0787 120.7 31.0787ZM129.6 37.2787C129.3 37.5787 129.2 36.8787 129.1 36.9787C128.6 37.6787 128.4 38.1787 128.1 38.1787C127.4 39.3787 127.1 38.7787 126.5 39.2787C126.2 39.4787 126.2 39.7787 125.6 39.9787C124.9 40.2787 124.8 40.3787 124.5 40.3787C121.9 40.3787 121.4 39.5787 121.4 36.8787C121.4 36.2787 121.8 35.1787 122.2 33.5787V33.1787C122.2 33.0787 122.3 32.7787 122.5 32.3787C122.7 31.8787 122.9 31.4787 122.9 31.3787C123.1 30.6787 123.3 30.2787 123.4 30.1787C123.5 29.8787 123.5 29.5787 123.5 29.4787C124 29.0787 124.3 28.6787 124.6 28.4787C124.6 28.0787 124.6 27.6787 124.6 27.4787C124.3 27.1787 124.1 26.9787 123.9 26.8787C124.1 26.7787 124.2 26.5787 124.2 26.3787C124.2 25.5787 123.6 25.1787 122.9 25.1787C122.1 25.1787 121.1 25.8787 120.5 27.2787C120.4 27.2787 120.1 27.1787 120 27.1787C119.9 27.4787 119.7 27.6787 119.5 27.8787C119.4 27.9787 119.2 28.1787 118.9 28.3787C118.9 28.7787 118.9 28.9787 118.9 28.9787C118.6 28.9787 118.4 29.0787 118.3 29.0787C118.4 29.1787 118.4 29.2787 118.4 29.2787C118.4 29.5787 118.1 29.8787 117.6 30.0787L117.5 30.3787C117.2 30.4787 117.1 30.7787 116.7 31.3787C116.1 32.1787 115.9 32.5787 115.8 32.6787C116 32.6787 116.1 32.7787 116.1 32.7787C115.7 32.7787 115.2 33.0787 114.7 33.7787C114.2 34.4787 114.2 34.9787 114.2 35.4787C114.2 35.9787 114.4 36.2787 114.8 36.4787C115.2 36.5787 115.5 36.6787 115.9 36.7787C116.1 36.6787 116.4 36.4787 116.8 36.1787C117.2 35.8787 117.5 35.6787 117.7 35.4787C118.1 35.0787 118.4 34.4787 119 34.2787C119 34.0787 119 33.9787 119 33.9787C119.2 33.9787 119.7 33.6787 120.4 32.9787C120.5 32.5787 120.6 32.4787 120.7 32.4787C120.8 32.4787 120.8 32.6787 120.8 33.1787L120.5 34.4787C120.2 35.7787 120 36.4787 120 36.8787C120 38.4787 120.1 38.6787 120.4 39.5787C120.7 40.3787 122 41.1787 122.1 41.1787C122.2 41.1787 122.2 41.0787 122.4 41.0787C122.5 41.0787 122.7 41.1787 123.1 41.3787C123.5 41.5787 123.6 41.6787 123.8 41.6787C124 41.6787 124.3 41.3787 124.5 41.3787C124.6 41.3787 124.7 41.4787 124.9 41.4787C125.1 41.4787 125.4 41.1787 125.7 41.1787C127.3 40.1787 127.7 39.6787 128.2 39.0787C129.4 37.8787 129.4 37.6787 129.6 37.2787Z" fill="black"></path> <path d="M35.0999 24.5787L34.7999 24.4787L34.6999 24.5787L34.8999 24.6787L35.0999 24.5787ZM34.1999 25.5787L34.0999 25.8787L33.9999 25.7787L34.0999 25.4787L34.1999 25.5787ZM38.9999 31.2787C38.8999 31.2787 38.5999 31.1787 38.3999 31.1787C38.1999 31.1787 37.9999 31.3787 37.5999 31.7787C37.4999 31.6787 37.3999 31.5787 37.2999 31.5787C37.1999 31.5787 36.9999 31.6787 36.7999 31.9787C36.4999 32.2787 36.3999 32.3787 36.2999 32.4787C36.1999 32.4787 35.9999 32.3787 35.8999 32.3787C35.7999 32.3787 35.4999 32.4787 35.0999 32.7787L34.1999 33.2787C34.1999 33.3787 34.1999 33.3787 34.1999 33.4787C34.1999 33.6787 33.9999 33.9787 33.5999 34.1787C33.1999 34.4787 32.9999 34.6787 32.9999 34.8787C32.9999 34.9787 33.0999 35.4787 33.0999 35.5787C33.2999 35.4787 33.6999 35.3787 34.4999 35.0787C35.2999 34.7787 35.6999 34.5787 35.6999 34.5787C35.7999 34.5787 35.7999 34.6787 35.8999 34.6787C36.0999 34.6787 36.2999 33.9787 36.3999 33.9787C36.4999 33.8787 36.7999 33.6787 37.1999 33.4787C37.2999 33.4787 37.4999 33.1787 37.9999 32.6787C38.3999 32.2787 38.6999 32.0787 38.7999 32.0787V31.9787C38.7999 31.8787 38.8999 31.7787 38.9999 31.6787V31.2787ZM44.6999 28.9787C44.2999 29.0787 44.1999 29.3787 44.0999 29.3787C43.8999 29.3787 43.6999 29.8787 43.3999 29.8787C43.2999 29.8787 42.8999 29.7787 42.7999 29.7787C42.2999 29.7787 41.7999 29.9787 41.4999 30.3787C41.0999 31.1787 40.4999 31.4787 40.3999 31.5787C40.3999 31.5787 40.4999 31.6787 40.4999 31.8787C40.4999 32.0787 40.0999 32.5787 39.1999 33.4787C38.2999 34.2787 37.8999 34.7787 37.7999 35.0787L37.5999 34.9787C36.8999 35.4787 36.3999 35.7787 35.8999 35.9787C35.7999 36.2787 35.6999 36.3787 35.4999 36.5787C35.3999 36.5787 35.1999 36.6787 34.8999 36.7787C34.5999 36.8787 34.3999 36.9787 34.1999 36.9787C34.0999 36.9787 34.0999 36.8787 33.9999 36.7787C33.8999 36.8787 33.8999 36.9787 33.7999 37.1787C33.1999 37.3787 32.7999 37.4787 32.5999 37.4787C31.3999 37.4787 30.8999 36.8787 30.8999 35.5787C30.8999 35.4787 31.4999 35.0787 31.3999 34.5787C31.4999 34.5787 31.5999 34.4787 31.7999 34.1787C31.9999 33.8787 32.0999 33.6787 32.0999 33.6787C32.2999 33.5787 32.9999 33.0787 34.3999 32.3787C35.6999 31.5787 36.4999 31.2787 36.5999 31.2787C36.6999 31.2787 36.7999 31.3787 36.8999 31.3787C37.9999 30.7787 38.4999 30.4787 38.5999 30.4787C38.6999 30.4787 38.8999 30.5787 38.9999 30.5787C39.5999 30.5787 39.8999 29.9787 39.8999 28.6787C39.8999 28.3787 39.6999 28.1787 39.4999 27.7787C39.1999 27.4787 38.8999 27.2787 38.6999 27.2787C38.3999 27.2787 37.8999 27.3787 37.1999 27.6787C36.4999 27.9787 35.9999 28.1787 35.6999 28.3787C35.5999 28.3787 35.3999 28.6787 34.8999 29.2787C34.5999 29.6787 34.2999 29.8787 33.9999 29.8787C33.9999 30.0787 33.9999 30.3787 33.9999 30.5787C33.8999 30.6787 33.5999 30.7787 33.1999 31.0787C32.9999 31.2787 32.6999 31.3787 32.2999 31.3787C32.1999 31.3787 32.0999 31.2787 31.9999 30.8787C31.8999 30.5787 31.7999 30.3787 31.7999 30.2787C31.7999 30.1787 31.8999 29.9787 32.1999 29.6787C32.4999 29.2787 32.6999 29.0787 32.6999 29.0787C32.7999 28.6787 33.0999 28.0787 33.3999 27.4787V27.5787C33.3999 27.6787 33.5999 27.6787 33.7999 27.6787C33.7999 27.5787 33.8999 27.3787 33.8999 27.1787C33.7999 27.1787 33.5999 27.1787 33.2999 27.0787C33.3999 26.8787 33.5999 26.4787 33.6999 26.4787C33.8999 26.4787 33.8999 26.6787 33.9999 26.6787C34.0999 26.6787 34.2999 26.5787 34.2999 26.2787C34.3999 25.8787 34.4999 25.6787 34.4999 25.6787C34.2999 25.5787 34.1999 25.3787 34.1999 25.1787C34.1999 24.8787 34.4999 24.6787 34.4999 24.4787C34.4999 24.3787 34.4999 24.2787 34.4999 24.1787C34.4999 24.0787 34.5999 24.0787 34.7999 24.1787C34.8999 24.1787 34.8999 24.0787 34.8999 23.9787C34.8999 23.8787 34.8999 23.6787 34.7999 23.4787C34.9999 23.4787 35.4999 23.0787 35.7999 23.0787C35.8999 23.0787 35.8999 23.0787 35.9999 22.9787V22.6787C35.8999 22.6787 35.3999 22.3787 35.3999 22.1787C35.3999 22.0787 35.4999 21.8787 35.4999 21.6787H35.7999C35.8999 21.5787 35.8999 21.4787 35.7999 21.2787C35.8999 21.0787 36.0999 20.7787 36.4999 20.3787C36.5999 19.8787 36.5999 19.4787 36.6999 19.3787C36.7999 19.1787 36.9999 18.9787 37.3999 18.5787C37.4999 18.1787 37.5999 17.6787 37.7999 17.1787C38.0999 16.4787 38.2999 16.1787 38.5999 16.1787C38.7999 16.1787 39.3999 16.2787 39.5999 16.2787C39.3999 17.4787 38.8999 18.4787 38.1999 19.1787C37.9999 19.3787 37.8999 19.4787 37.8999 19.6787C37.7999 20.1787 37.4999 20.9787 36.9999 21.9787C36.4999 22.9787 36.1999 23.6787 36.0999 24.0787C35.8999 24.1787 35.6999 24.3787 35.5999 24.4787V24.6787C35.5999 25.1787 35.3999 25.8787 34.8999 26.7787C34.9999 26.8787 35.0999 26.9787 35.1999 26.9787C35.2999 26.9787 35.5999 26.8787 35.9999 26.6787C36.7999 26.1787 37.6999 25.9787 38.6999 25.9787C38.9999 25.9787 39.8999 26.3787 40.1999 26.4787C40.4999 26.7787 40.6999 27.0787 40.8999 27.2787C41.1999 27.6787 41.3999 27.9787 41.3999 28.1787C41.3999 28.4787 41.3999 28.7787 41.3999 29.0787C41.3999 29.4787 41.5999 29.6787 41.7999 29.6787C41.7999 29.6787 44.1999 28.7787 44.2999 28.9787L45.8999 28.3787L45.1999 28.9787C45.2999 28.6787 44.9999 28.8787 44.6999 28.9787Z" fill="black"></path> <path d="M48.2003 26.4793C48.2003 26.9793 48.1003 27.9793 48.4003 28.6793C48.9003 29.5793 49.1003 29.8793 49.2003 30.0793C49.3003 30.4793 50.1003 29.1793 50.1003 29.5793C50.1003 29.6793 50.2003 29.8793 50.4003 30.1793C50.6003 30.4793 50.7003 30.6793 50.8003 30.6793C50.9003 30.6793 50.9003 30.6793 50.9003 30.6793H51.0003C51.1003 30.6793 51.4003 30.8793 51.4003 30.8793V30.9793C51.2003 31.1793 51.2003 31.2793 51.2003 31.1793C51.3003 31.4793 51.4003 31.6793 51.6003 31.6793C51.7003 31.6793 51.7003 31.6793 51.7003 31.6793H51.8003C51.8003 31.6793 51.9003 31.8793 52.2003 32.1793C52.4003 32.4793 52.5003 32.5793 52.8003 32.5793C52.9003 32.9793 53.5003 32.6793 53.7003 32.8793C53.8003 32.9793 53.9003 33.1793 54.2003 33.2793C54.4003 33.3793 54.6003 33.4793 54.7003 33.5793C54.9003 33.4793 55.1003 33.3793 55.2003 33.2793L55.4003 32.9793C55.2003 32.9793 55.2003 32.7793 55.4003 32.5793C55.4003 32.4793 55.5003 32.4793 55.6003 32.3793L55.8003 32.1793C55.9003 32.0793 55.9003 32.0793 55.9003 31.9793C56.0003 31.7793 56.1003 31.4793 56.4003 31.0793C56.6003 30.6793 56.8003 30.3793 56.8003 30.1793C56.5003 30.0793 56.4003 29.9793 56.7003 29.6793C56.8003 29.4793 56.8003 29.2793 57.0003 28.5793C57.2003 27.8793 57.4003 27.2793 57.7003 26.8793L57.8003 26.7793C57.7003 26.7793 57.6003 26.7793 57.5003 26.8793C57.5003 26.5793 57.6003 26.4793 57.6003 26.4793C56.3003 25.8793 54.7003 25.7793 52.6003 25.7793C52.5003 25.7793 52.2003 25.9793 52.1003 25.9793C52.0003 25.9793 51.9003 25.7793 51.8003 25.7793C51.7003 25.7793 51.2003 26.0793 50.4003 26.1793C49.9003 26.2793 49.3003 26.3793 48.8003 26.4793H48.2003ZM53.1003 37.0793C53.2003 36.8793 53.0003 36.7793 52.9003 36.7793L53.3003 36.2793C53.4003 36.1793 53.5003 36.1793 53.6003 36.0793C53.7003 35.9793 53.7003 35.8793 53.8003 35.6793C53.9003 35.5793 54.0003 35.4793 54.1003 35.3793C54.3003 35.0793 54.3003 34.9793 54.2003 34.8793L53.9003 35.0793C54.0003 34.7793 53.9003 34.5793 53.6003 34.5793C53.0003 34.5793 52.1003 34.9793 50.4003 35.9793C49.7003 36.4793 49.3003 37.2793 47.6003 38.2793C47.3003 38.2793 47.2003 38.3793 47.1003 38.3793V38.4793C47.0003 38.5793 46.7003 38.7793 46.3003 38.8793C46.2003 38.9793 46.2003 39.0793 46.2003 39.0793C46.2003 39.0793 46.2003 39.0793 46.0003 39.1793C45.8003 39.0793 45.7003 39.0793 45.6003 39.0793C45.5003 39.0793 45.4003 39.0793 45.4003 39.1793L45.3003 39.4793C44.0003 40.3793 43.0003 40.4793 40.7003 41.3793V41.0793C40.2003 41.4793 39.4003 41.6793 38.2003 41.6793C38.1003 41.6793 38.2003 41.4793 38.0003 41.3793C37.9003 41.3793 37.3003 41.6793 37.2003 41.6793C36.9003 41.6793 36.6003 41.4793 36.3003 41.1793C36.0003 40.8793 35.8003 40.6793 35.6003 40.6793C35.5003 40.6793 35.3003 40.7793 35.2003 40.7793C35.0003 40.7793 34.8003 40.5793 34.8003 40.2793C34.9003 40.2793 34.9003 40.3793 35.0003 40.3793C35.1003 40.3793 35.5003 40.1793 35.6003 40.1793C35.7003 40.1793 35.9003 40.2793 36.1003 40.4793C36.4003 40.6793 36.5003 40.7793 36.6003 40.7793C36.9003 40.7793 37.2003 40.7793 37.7003 40.8793C38.2003 40.9793 38.6003 40.9793 38.8003 40.9793C39.6003 40.9793 40.8003 40.4793 43.1003 39.4793C43.7003 39.2793 44.8003 38.5793 45.1003 38.1793L52.2003 33.2793C52.2003 33.1793 51.3003 32.9793 51.2003 32.9793C51.1003 32.9793 51.2003 32.6793 51.0003 32.6793C50.9003 32.6793 50.7003 32.8793 50.6003 32.8793C50.5003 32.8793 50.5003 32.7793 50.5003 32.5793C50.5003 32.3793 50.8003 32.2793 50.8003 32.2793C50.4003 31.8793 50.1003 31.6793 49.9003 31.5793C49.7003 31.3793 48.9003 31.4793 48.8003 31.3793C48.7003 31.0793 48.4003 30.9793 48.4003 30.9793C48.4003 30.9793 47.5003 30.3793 47.4003 30.2793C47.5003 29.9793 47.5003 29.8793 47.4003 29.7793C46.8003 29.2793 46.5003 28.9793 46.5003 28.7793C46.4003 28.3793 46.3003 28.1793 46.2003 27.9793C46.1003 27.8793 46.5003 27.0793 46.5003 26.6793C46.5003 26.3793 46.6003 26.0793 46.7003 25.9793C47.0003 25.5793 47.9003 25.1793 49.5003 24.8793C50.8003 24.5793 51.7003 24.3793 52.3003 24.3793C52.5003 24.3793 52.8003 24.3793 53.2003 24.4793C53.6003 24.5793 53.9003 24.5793 54.1003 24.5793C54.2003 24.5793 54.5003 24.3793 54.6003 24.3793C54.7003 24.3793 54.9003 24.4793 55.4003 24.5793C56.1003 24.7793 56.7003 24.6793 57.2003 24.6793C57.3003 24.6793 57.6003 24.5793 58.0003 24.2793C58.4003 24.0793 58.7003 23.9793 58.8003 24.0793C58.9003 24.1793 59.1003 24.0793 58.9003 24.5793C58.7003 25.0793 58.6003 25.4793 58.8003 25.4793C58.9003 25.4793 58.9003 25.4793 58.9003 25.4793C58.9003 25.4793 58.9003 25.4793 59.0003 25.4793C59.1003 25.4793 59.3003 25.5793 59.6003 25.6793C59.9003 25.7793 60.0003 25.8793 60.1003 25.9793C60.1003 25.9793 60.2003 26.2793 60.3003 26.2793C60.4003 26.2793 60.6003 26.1793 60.7003 26.1793C61.0003 26.1793 61.5003 26.3793 62.2003 26.7793C62.7003 27.0793 63.2003 27.0793 63.4003 27.2793C63.8003 27.3793 64.1003 27.4793 64.5003 27.5793C65.0003 27.7793 65.2003 27.9793 65.1003 28.1793C65.0003 28.3793 64.6003 28.6793 64.1003 28.9793C63.6003 29.2793 63.2003 29.3793 63.0003 29.4793C62.9003 29.4793 62.9003 29.3793 62.8003 29.3793C62.7003 29.3793 62.6003 29.5793 62.5003 29.5793C62.4003 29.5793 62.4003 29.4793 62.4003 29.3793C62.5003 29.2793 62.6003 29.1793 62.6003 29.1793C62.7003 28.9793 62.7003 28.7793 62.8003 28.6793L63.0003 28.3793C62.9003 28.3793 62.7003 28.1793 62.6003 28.1793C62.5003 28.1793 62.3003 28.0793 62.1003 27.7793C61.9003 27.4793 61.6003 27.3793 61.4003 27.3793C61.3003 27.3793 61.3003 27.3793 61.3003 27.3793C61.3003 27.3793 61.3003 27.3793 61.2003 27.3793C61.1003 27.3793 60.7003 27.2793 60.1003 26.8793C59.5003 26.5793 59.0003 26.3793 58.9003 26.3793C58.8003 26.3793 58.7003 26.3793 58.6003 26.4793C58.6003 26.5793 59.4003 26.6793 59.3003 26.8793C59.1003 27.1793 58.9003 27.5793 58.8003 28.0793C58.7003 28.5793 58.6003 28.8793 58.5003 28.9793C58.4003 29.0793 58.2003 29.2793 58.2003 29.3793V29.4793C58.3003 29.5793 58.1003 30.1793 58.0003 30.2793C57.8003 30.6793 56.9003 32.9793 56.0003 34.7793C56.0003 34.9793 55.9003 35.3793 55.6003 35.8793C55.3003 36.3793 55.7003 36.2793 55.6003 36.4793C54.9003 37.5793 53.1003 37.0793 53.1003 37.0793Z" fill="black"></path> <path d="M24.1002 34.2787C23.9002 34.2787 24.0002 34.3787 23.6002 34.6787C23.1002 35.1787 22.1002 35.9787 21.3002 37.0787C20.8002 37.1787 19.8002 38.3787 19.2002 38.5787C19.4002 38.4787 19.2002 37.9787 19.6002 37.4787C20.0002 37.0787 20.9002 36.3787 21.4002 35.6787C21.4002 35.5787 21.3002 35.4787 21.2002 35.3787C21.6002 35.0787 22.1002 34.5787 22.7002 33.8787C23.4002 33.0787 24.0002 31.6787 24.3002 31.4787C24.6002 30.6787 25.5002 29.7787 26.4002 28.1787C27.5002 26.2787 28.0002 25.2787 28.3002 25.2787C28.4002 25.2787 28.8002 25.1787 28.9002 25.1787C29.0002 25.1787 29.2002 25.2787 29.4002 25.3787C29.6002 25.9787 29.8002 27.0787 29.8002 28.5787C29.8002 28.8787 29.8002 29.1787 29.7002 29.7787C29.6002 30.2787 29.6002 30.7787 29.6002 31.0787C29.6002 32.1787 29.4002 32.8787 29.1002 33.1787C29.3002 33.4787 29.4002 33.9787 29.4002 34.5787C29.4002 35.6787 29.2002 36.2787 28.7002 36.2787C28.5002 36.2787 28.1002 36.0787 27.5002 36.0787C27.5002 35.4787 27.6002 33.9787 27.9002 32.4787C28.2002 30.9787 28.3002 29.8787 28.3002 29.1787V28.8787L28.1002 28.1787C27.7002 28.6787 26.5002 30.2787 25.6002 32.0787L24.1002 34.2787Z" fill="black"></path> <path d="M2.9001 35.2787C2.4001 36.1787 2.2001 36.7787 2.1001 36.8787C1.9001 37.1787 1.5001 37.3787 1.1001 37.3787C0.600098 37.3787 0.100098 36.9787 0.100098 36.3787C0.100098 36.1787 0.400097 35.5787 0.900097 34.6787C1.4001 33.6787 1.8001 33.2787 1.9001 33.1787C2.0001 32.8787 2.2001 32.2787 2.3001 31.5787C2.7001 31.2787 2.9001 31.0787 3.0001 30.7787L3.2001 29.7787C3.7001 29.2787 4.2001 28.5787 4.6001 27.5787C5.0001 26.6787 5.2001 25.7787 5.3001 25.0787C5.3001 25.1787 5.3001 25.3787 5.4001 25.3787C5.6001 25.0787 5.8001 24.5787 6.1001 23.9787C6.4001 23.1787 6.6001 22.6787 6.6001 22.4787C6.8001 22.3787 7.0001 22.1787 7.2001 21.6787C7.3001 21.2787 7.4001 20.8787 7.5001 20.4787C7.7001 20.3787 7.9001 20.0787 8.0001 19.5787C8.1001 18.9787 8.2001 18.5787 8.2001 18.4787C8.3001 18.3787 8.4001 18.1787 8.8001 17.7787C9.1001 17.4787 8.9001 17.1787 8.9001 17.1787C8.9001 16.8787 9.0001 16.3787 8.7001 16.4787C6.8001 16.9787 5.2001 17.4787 3.1001 19.4787V19.6787C3.1001 19.9787 3.2001 20.1787 3.0001 20.4787C2.8001 20.7787 2.7001 20.7787 2.5001 21.0787C2.2001 20.9787 1.9001 21.0787 1.6001 21.0787C1.5001 21.0787 1.4001 20.8787 1.2001 20.5787C1.0001 20.1787 1.2001 19.8787 1.2001 19.6787C1.2001 19.2787 1.1001 19.3787 2.8001 18.1787C4.4001 16.9787 5.3001 16.4787 5.7001 16.4787C5.8001 16.4787 5.8001 16.4787 5.8001 16.4787C5.8001 16.4787 5.8001 16.5787 5.9001 16.5787C6.1001 16.5787 6.3001 16.0787 6.4001 16.0787C6.9001 15.6787 7.8001 15.1787 10.3001 14.1787C10.5001 14.2787 10.6001 14.4787 10.8001 14.5787C11.0001 14.7787 11.7001 14.8787 11.7001 14.9787C11.7001 15.3787 11.6001 15.8787 11.0001 16.9787L9.8001 19.1787C9.7001 19.3787 9.6001 19.6787 9.4001 20.1787C9.4001 20.1787 9.2001 20.3787 9.0001 20.5787C8.8001 21.3787 8.2001 22.8787 7.0001 24.8787L7.2001 25.0787C7.2001 25.0787 7.0001 25.9787 7.0001 26.1787C7.0001 26.4787 5.8001 28.9787 5.8001 28.9787L4.3001 31.3787C4.3001 31.4787 4.4001 31.8787 4.4001 31.7787C5.8001 30.0787 7.7001 28.2787 10.5001 25.2787C10.8001 24.9787 11.6001 24.5787 12.1001 24.0787C12.2001 23.8787 12.5001 23.4787 12.8001 23.0787C13.0001 22.9787 13.2001 22.7787 13.6001 22.3787C14.3001 21.3787 16.3001 18.8787 17.0001 17.5787V17.3787C17.0001 17.1787 17.1001 16.8787 17.4001 16.4787C17.8001 15.9787 18.0001 15.6787 18.0001 15.5787C18.2001 15.3787 18.4001 15.2787 18.5001 15.2787C18.6001 15.2787 18.7001 15.6787 18.9001 15.6787C19.0001 15.6787 19.0001 15.5787 19.1001 15.5787C19.3001 15.5787 19.9001 15.7787 20.2001 15.7787C20.4001 15.8787 20.4001 15.9787 20.4001 16.0787C20.4001 16.8787 20.0001 17.8787 19.1001 19.0787C17.9001 20.8787 17.3001 21.7787 17.2001 21.8787C16.7001 22.7787 16.0001 24.1787 15.2001 25.9787C14.9001 26.1787 14.7001 26.2787 14.6001 26.3787C14.4001 26.5787 14.3001 26.7787 14.3001 27.0787L14.5001 26.9787L14.8001 27.0787C14.5001 27.3787 12.8001 31.8787 12.3001 33.4787C11.9001 35.0787 11.7001 35.5787 11.7001 36.0787C11.7001 38.7787 12.2001 40.1787 14.8001 40.1787C15.1001 40.1787 15.6001 40.0787 16.3001 39.7787C16.9001 39.5787 17.1001 39.2787 17.5001 39.0787C18.1001 38.6787 18.2001 39.1787 18.9001 37.9787C19.4001 37.8787 19.5001 38.3787 20.3001 37.5787C20.1001 37.8787 19.9001 37.7787 19.9001 37.7787C19.9001 37.7787 19.5001 38.2787 19.3001 38.4787C18.8001 39.0787 18.4001 40.1787 16.8001 41.1787C16.6001 41.1787 15.5001 41.4787 15.3001 41.4787C15.2001 41.4787 15.1001 41.3787 14.9001 41.3787C14.7001 41.3787 14.4001 41.6787 14.2001 41.6787C14.0001 41.6787 13.6001 41.5787 13.2001 41.3787C12.8001 41.1787 12.5001 41.0787 12.5001 41.0787C12.3001 41.0787 12.4001 41.1787 12.2001 41.1787C12.1001 41.1787 11.8001 40.7787 10.9001 39.9787C10.0001 39.0787 10.2001 37.8787 10.2001 36.2787C10.2001 35.8787 10.3001 35.6787 10.6001 34.3787C10.9001 33.0787 12.5001 28.7787 12.7001 28.3787C12.9001 27.9787 13.0001 27.6787 13.0001 27.5787C13.1001 27.3787 13.3001 27.0787 13.5001 26.8787C13.4001 26.7787 13.4001 26.6787 13.4001 26.5787C13.4001 26.2787 13.6001 25.7787 13.9001 25.0787C14.3001 24.4787 14.5001 23.9787 14.5001 23.6787C14.7001 23.4787 15.1001 23.1787 15.5001 22.7787V22.6787L14.1001 23.5787L12.6001 25.0787C12.5001 25.0787 11.9001 25.7787 10.8001 26.9787C9.8001 28.0787 9.3001 28.5787 9.2001 28.5787C9.1001 28.5787 9.2001 28.4787 9.0001 28.4787C9.0001 28.5787 8.9001 28.5787 8.9001 28.6787C8.9001 28.7787 8.9001 28.8787 9.0001 28.8787C8.8001 28.8787 8.5001 29.0787 8.2001 29.4787C7.8001 29.8787 7.6001 30.0787 7.4001 30.0787C7.3001 30.0787 7.2001 30.0787 7.1001 29.9787V30.1787C7.1001 30.2787 7.1001 30.4787 7.2001 30.5787C7.0001 30.7787 6.6001 31.0787 6.1001 31.4787C5.7001 31.8787 5.1001 32.3787 4.4001 33.0787C4.1001 33.4787 3.8001 33.7787 3.5001 34.0787C3.7001 34.0787 3.1001 34.8787 2.9001 35.2787Z" fill="black"></path> <path d="M71.9003 31.6787L74.0003 29.5787C74.6003 29.5787 74.9003 29.3787 74.8003 28.8787C74.8003 28.8787 75.1003 28.5787 75.5003 28.2787C75.9003 27.9787 76.1003 27.7787 76.2003 27.7787C76.3003 27.7787 76.5003 27.8787 76.7003 27.8787C76.7003 27.8787 76.7003 27.7787 76.7003 27.6787C76.7003 27.5787 76.6003 27.4787 76.5003 27.3787C76.6003 27.2787 76.6003 26.9787 76.8003 26.9787C76.9003 26.9787 76.9003 26.9787 76.9003 26.9787C76.9003 26.9787 76.9003 27.0787 77.0003 27.0787C77.5003 26.3787 77.9003 25.7787 78.1003 25.1787C78.3003 25.0787 78.5003 24.9787 78.7003 24.7787C78.9003 24.6787 79.1003 24.6787 79.3003 24.5787C79.6003 24.4787 79.8003 24.3787 79.7003 24.2787C79.7003 24.1787 79.7003 23.9787 79.6003 23.8787C79.9003 23.7787 80.2003 23.4787 80.5003 22.8787C80.8003 22.2787 81.0003 21.9787 81.2003 21.9787C81.4003 21.9787 81.3003 22.1787 81.5003 22.1787C81.7003 22.1787 81.8003 21.9787 81.8003 21.6787L82.0003 21.7787C82.4003 21.3787 82.9003 20.5787 83.7002 19.2787C83.8002 19.0787 83.9002 18.9787 83.9002 18.9787C83.9002 18.9787 84.2002 18.8787 84.6002 18.8787C84.6002 18.5787 85.1002 18.5787 85.2002 18.1787C85.6002 17.7787 85.2002 17.3787 85.5002 17.3787C85.7002 17.3787 85.7002 17.2787 85.8002 17.2787C86.5002 15.8787 86.6002 15.5787 86.6002 15.5787C87.1002 14.7787 87.7002 14.3787 88.4002 14.3787C88.5002 14.3787 88.8002 14.6787 89.3002 15.1787C89.3002 15.4787 89.3002 15.5787 89.1002 16.0787C88.9002 16.3787 88.6002 16.6787 88.0002 17.1787C87.6002 17.5787 87.3002 18.0787 87.0002 18.6787C86.3002 20.4787 84.6002 24.7787 83.8002 28.3787L85.2002 26.7787C85.3002 26.7787 85.8002 26.0787 86.9002 24.7787C87.8002 23.6787 88.4002 23.0787 88.5002 23.0787C88.6002 23.0787 88.6002 23.1787 88.7002 23.1787C88.7002 23.0787 88.8002 23.0787 88.8002 22.9787C88.8002 22.8787 88.8002 22.7787 88.7002 22.7787C88.9002 22.7787 89.1002 22.4787 89.5002 22.0787C89.8002 21.6787 90.1002 21.4787 90.3002 21.4787C90.4002 21.4787 90.5002 21.4787 90.6002 21.5787V21.3787C90.6002 21.2787 90.5002 21.0787 90.5002 20.9787C90.7002 20.7787 91.1002 20.4787 91.5002 20.0787C91.9002 19.6787 92.4002 19.1787 93.2002 18.4787C93.5002 18.0787 93.8002 17.7787 94.1002 17.3787C94.5002 16.8787 94.8002 16.5787 95.1002 16.5787C95.3002 16.5787 95.4002 16.5787 95.4002 16.6787C95.5002 16.5787 95.6002 16.4787 95.6002 16.1787C95.6002 16.1787 95.9002 15.8787 96.5002 15.1787C97.1002 14.4787 97.4002 14.1787 97.6002 14.1787C98.1002 14.1787 98.7002 14.6787 98.7002 15.2787C98.7002 15.4787 98.4002 16.2787 98.4002 16.4787C97.8002 16.9787 97.1002 17.6787 96.1002 18.6787C96.0002 18.9787 95.7002 19.3787 95.4002 19.8787C95.1002 20.2787 94.7002 20.8787 94.2002 21.6787C93.6002 22.6787 93.1002 23.6787 92.6002 24.6787C92.0002 25.8787 91.5002 26.9787 91.3002 27.8787C91.2002 28.4787 91.0002 28.7787 90.9002 28.7787C90.8002 28.7787 90.7002 28.6787 90.7002 28.6787H90.6002V28.7787C90.6002 28.6787 90.5002 28.9787 90.4002 29.6787C90.4002 30.0787 90.3002 30.4787 90.3002 30.8787C90.3002 31.3787 90.1002 31.6787 89.9002 31.7787C90.1002 33.2787 90.3002 34.1787 90.5002 34.4787C90.9002 35.1787 91.6002 35.4787 92.7002 35.4787C92.9002 35.4787 93.4002 35.1787 94.1002 34.6787C94.8002 34.1787 95.2002 33.7787 95.2002 33.5787C95.3002 33.4787 95.5002 33.4787 95.7002 33.4787C95.7002 33.2787 95.9002 32.9787 96.4002 32.5787C96.7002 32.2787 97.1002 32.0787 97.4002 31.7787C97.5002 31.5787 97.7002 31.3787 98.0002 30.9787C98.2002 30.8787 98.5002 30.6787 98.8002 30.2787C99.0002 30.1787 99.4002 29.9787 99.8002 29.6787H100.3C100.2 29.8787 100 30.0787 99.8002 30.1787C99.5002 30.2787 99.3002 30.4787 99.2002 30.4787C99.0002 31.0787 98.6002 31.7787 97.9002 32.5787C97.3002 33.1787 96.8002 33.7787 96.2002 34.3787C95.3002 35.3787 94.7002 35.9787 94.4002 36.1787C93.7002 36.7787 92.9002 37.0787 92.2002 37.0787C91.2002 37.0787 90.4002 36.5787 89.7002 35.6787C89.0002 34.7787 88.7002 33.7787 88.7002 32.6787C88.7002 32.4787 88.9002 31.7787 89.0002 31.5787C88.9002 31.3787 88.9002 31.0787 88.9002 30.7787C88.9002 30.0787 89.1002 29.2787 89.6002 28.3787C90.1002 27.2787 90.4002 26.5787 90.5002 26.1787C90.7002 26.1787 90.8002 25.9787 91.1002 25.6787C91.3002 25.3787 91.5002 25.1787 91.7002 25.0787C91.6002 24.9787 91.5002 24.8787 91.4002 24.8787C91.4002 23.9787 92.2002 22.2787 93.8002 19.7787C93.8002 19.6787 93.7002 19.4787 93.6002 19.4787C92.2002 20.9787 90.1002 23.2787 87.3002 26.2787C87.0002 26.5787 86.6002 26.9787 86.2002 27.5787C86.1002 27.7787 85.8002 28.1787 85.5002 28.5787C85.3002 28.6787 85.1002 28.8787 84.7002 29.3787C84.0002 30.4787 82.2003 33.0787 81.5003 34.3787V34.5787C81.5003 34.7787 81.4003 35.0787 81.1003 35.4787C80.8003 35.9787 80.5003 36.2787 80.5003 36.3787C80.3003 36.5787 80.2003 36.6787 80.0003 36.6787C79.9003 36.6787 79.8003 36.3787 79.6003 36.3787C79.5003 36.3787 79.5003 36.4787 79.4003 36.4787C79.2003 36.4787 78.9003 35.9787 78.9003 35.6787C78.9003 35.3787 79.1003 34.6787 79.7003 33.7787C80.3003 32.6787 81.4003 30.6787 81.4003 30.4787C81.5003 30.3787 81.6003 30.1787 81.6003 29.7787C81.6003 29.2787 81.7003 28.9787 81.8003 28.7787L82.2003 28.5787L83.0003 26.3787C83.4002 25.3787 83.8002 24.7787 83.8002 24.3787C84.0002 23.8787 84.2002 23.6787 84.4002 23.2787C84.6002 22.7787 84.7002 22.1787 84.6002 21.7787C85.2002 20.5787 85.5002 19.8787 85.4002 19.8787C85.4002 19.7787 85.3002 19.5787 85.2002 19.3787C85.2002 19.3787 84.2002 20.4787 82.4003 22.4787C81.3003 23.6787 80.3003 24.7787 79.4003 25.4787C79.3003 25.5787 79.3003 25.6787 79.4003 25.8787C78.7003 26.7787 77.5003 28.0787 76.0003 29.7787C75.6003 30.0787 75.0003 30.5787 74.3003 31.1787C74.3003 31.2787 74.3003 31.5787 74.2003 31.7787C74.0003 32.0787 72.8003 32.8787 72.6003 33.1787C72.3003 33.9787 71.6003 34.9787 70.6003 35.9787C70.3003 36.3787 69.8003 36.6787 69.2003 36.8787C68.5003 37.1787 68.0003 37.1787 67.6003 36.9787C67.3003 36.8787 67.0003 36.5787 66.7003 36.0787C66.4003 35.5787 66.3003 35.2787 66.4003 34.8787C66.5003 34.3787 66.9003 34.2787 67.3003 34.1787C67.4003 34.3787 67.5003 34.4787 67.8003 34.5787C68.3003 34.7787 68.7003 34.8787 69.1003 34.6787C69.3003 34.6787 69.7003 34.2787 70.5003 33.5787C71.3003 32.8787 71.7003 32.4787 71.7003 32.3787C71.7003 32.2787 71.7003 31.8787 71.8003 31.7787C71.6003 32.0787 71.6003 32.0787 71.9003 31.6787Z" fill="black"></path> <path d="M0.100098 44.7793H160" stroke="black" stroke-width="0.594"></path> <path d="M0 47.3789H1V50.8789L3.2 47.3789H4.2V52.6789H3.2V49.2789L1.1 52.6789H0V47.3789Z" fill="black"></path> <path d="M8.5 47.3789H12.6V52.6789H11.6V48.2789H9.5V52.6789H8.5V47.3789Z" fill="black"></path> <path d="M17.1002 50.5789L16.4002 48.5789L15.7002 50.5789H17.1002ZM19.0002 52.6789H17.8002L17.3002 51.4789H15.2002L14.8002 52.6789H13.7002L15.7002 47.3789H16.8002L19.0002 52.6789Z" fill="black"></path> <path d="M21.2001 48.2789V49.7789H21.8001C22.2001 49.7789 22.5001 49.7789 22.6001 49.6789C22.7001 49.5789 22.9001 49.5789 22.9001 49.3789C23.0001 49.2789 23.0001 49.0789 23.0001 48.9789C23.0001 48.7789 22.9001 48.6789 22.8001 48.4789C22.7001 48.3789 22.5001 48.2789 22.4001 48.2789C22.3001 48.2789 22.0001 48.2789 21.6001 48.2789H21.2001ZM20.1001 52.6789V47.3789H21.8001C22.4001 47.3789 22.9001 47.3789 23.1001 47.4789C23.4001 47.5789 23.7001 47.7789 23.9001 47.9789C24.1001 48.2789 24.2001 48.5789 24.2001 48.9789C24.2001 49.2789 24.1001 49.5789 24.0001 49.7789C23.9001 49.9789 23.7001 50.1789 23.6001 50.2789C23.4001 50.3789 23.2001 50.4789 23.0001 50.5789C22.7001 50.5789 22.4001 50.6789 21.9001 50.6789H21.2001V52.6789H20.1001Z" fill="black"></path> <path d="M26.7001 52.6789V48.2789H25.1001V47.3789H29.3001V48.2789H27.7001V52.6789H26.7001Z" fill="black"></path> <path d="M30.5 52.6789V47.3789H31.6V49.4789H33.7V47.3789H34.7V52.6789H33.7V50.3789H31.6V52.6789H30.5Z" fill="black"></path> <path d="M38.7004 46.2793H39.6004V47.1793H38.7004V46.2793ZM37.1004 46.2793H38.0004V47.1793H37.1004V46.2793ZM36.4004 52.6793V47.3793H40.3004V48.2793H37.5004V49.4793H40.1004V50.3793H37.5004V51.7793H40.4004V52.6793H36.4004Z" fill="black"></path> <path d="M42.9003 48.2789V49.7789H43.5003C43.9003 49.7789 44.2003 49.7789 44.3003 49.6789C44.4003 49.5789 44.6003 49.5789 44.6003 49.3789C44.7003 49.2789 44.7003 49.0789 44.7003 48.9789C44.7003 48.7789 44.6003 48.6789 44.5003 48.4789C44.4003 48.3789 44.2003 48.2789 44.1003 48.2789C44.0003 48.2789 43.7003 48.2789 43.3003 48.2789H42.9003ZM41.8003 52.6789V47.3789H43.5003C44.1003 47.3789 44.6003 47.3789 44.8003 47.4789C45.1003 47.5789 45.4003 47.7789 45.6003 47.9789C45.8003 48.2789 45.9003 48.5789 45.9003 48.9789C45.9003 49.2789 45.8003 49.5789 45.7003 49.7789C45.6003 49.9789 45.4003 50.1789 45.3003 50.2789C45.1003 50.3789 44.9003 50.4789 44.7003 50.5789C44.4003 50.5789 44.1003 50.6789 43.6003 50.6789H42.9003V52.6789H41.8003Z" fill="black"></path> <path d="M52.3003 47.3789H53.4003V52.6789H52.3003V47.3789ZM48.4003 51.7789H49.4003C49.7003 51.7789 50.0003 51.7789 50.1003 51.7789C50.2003 51.7789 50.3003 51.6789 50.4003 51.5789C50.5003 51.4789 50.6003 51.2789 50.6003 51.1789C50.6003 50.9789 50.5003 50.7789 50.4003 50.6789C50.2003 50.5789 49.9003 50.4789 49.5003 50.4789H48.4003V51.7789ZM47.3003 47.3789H48.4003V49.4789H49.8003C50.2003 49.4789 50.5003 49.5789 50.8003 49.6789C51.1003 49.7789 51.3003 49.9789 51.5003 50.1789C51.7003 50.4789 51.8003 50.7789 51.8003 51.0789C51.8003 51.4789 51.7003 51.7789 51.5003 51.9789C51.3003 52.2789 51.1003 52.3789 50.9003 52.4789C50.7003 52.5789 50.3003 52.5789 49.9003 52.5789H47.4003V47.3789H47.3003Z" fill="black"></path> <path d="M57.3003 50.0787C57.3003 49.7787 57.4003 49.5787 57.6003 49.4787C57.8003 49.2787 58.0003 49.1787 58.2003 49.1787C58.4003 49.1787 58.6003 49.2787 58.8003 49.4787C59.0003 49.6787 59.1003 49.8787 59.1003 50.0787C59.1003 50.3787 59.0003 50.5787 58.8003 50.6787C58.6003 50.8787 58.4003 50.9787 58.2003 50.9787C58.0003 50.9787 57.8003 50.8787 57.6003 50.6787C57.4003 50.5787 57.3003 50.3787 57.3003 50.0787Z" fill="black"></path> <path d="M63.8004 50.4789H65.5004L65.0004 48.9789C64.8004 48.5789 64.7004 48.1789 64.6004 47.8789C64.5004 48.1789 64.4004 48.5789 64.3004 48.8789L63.8004 50.4789ZM62.4004 52.6789L64.3004 47.3789H65.0004L67.0004 52.6789H66.2004L65.6004 51.0789H63.5004L63.0004 52.6789H62.4004Z" fill="black"></path> <path d="M68.7001 52.0789H69.9001C70.1001 52.0789 70.3001 52.0789 70.4001 52.0789C70.6001 52.0789 70.7001 51.9789 70.8001 51.9789C70.9001 51.8789 71.0001 51.7789 71.1001 51.6789C71.2001 51.5789 71.2001 51.3789 71.2001 51.2789C71.2001 51.0789 71.2001 50.8789 71.1001 50.7789C71.0001 50.6789 70.9001 50.5789 70.7001 50.4789C70.5001 50.3789 70.3001 50.3789 70.0001 50.3789H68.8001V52.0789H68.7001ZM68.7001 49.5789H69.8001C70.1001 49.5789 70.3001 49.5789 70.4001 49.4789C70.6001 49.3789 70.7001 49.3789 70.8001 49.1789C70.9001 49.0789 70.9001 48.8789 70.9001 48.6789C70.9001 48.4789 70.9001 48.3789 70.8001 48.1789C70.7001 48.0789 70.6001 47.9789 70.5001 47.8789C70.4001 47.8789 70.1001 47.7789 69.7001 47.7789H68.7001V49.5789ZM68.1001 52.6789V47.3789H70.0001C70.4001 47.3789 70.7001 47.4789 70.9001 47.5789C71.1001 47.6789 71.3001 47.8789 71.4001 48.0789C71.5001 48.2789 71.6001 48.5789 71.6001 48.7789C71.6001 48.9789 71.5001 49.1789 71.4001 49.3789C71.3001 49.5789 71.1001 49.7789 70.9001 49.8789C71.2001 49.9789 71.4001 50.1789 71.6001 50.3789C71.8001 50.5789 71.8001 50.8789 71.8001 51.1789C71.8001 51.3789 71.8001 51.6789 71.7001 51.8789C71.6001 52.0789 71.5001 52.2789 71.3001 52.3789C71.2001 52.4789 71.0001 52.5789 70.8001 52.6789C70.6001 52.7789 70.3001 52.7789 70.0001 52.7789H68.1001V52.6789Z" fill="black"></path> <path d="M74.1004 52.6789V47.9789H72.4004V47.3789H76.4004V47.9789H74.7004V52.6789H74.1004Z" fill="black"></path> <path d="M77.8001 50.0793C77.8001 50.6793 78.0001 51.1793 78.3001 51.5793C78.6001 51.9793 79.0001 52.0793 79.5001 52.0793C80.0001 52.0793 80.4001 51.8793 80.7001 51.4793C81.0001 51.0793 81.2001 50.5793 81.2001 49.8793C81.2001 49.4793 81.1001 49.0793 81.0001 48.7793C80.9001 48.4793 80.7001 48.1793 80.4001 48.0793C80.1001 47.8793 79.8001 47.7793 79.5001 47.7793C79.0001 47.7793 78.6001 47.9793 78.3001 48.2793C77.9001 48.7793 77.8001 49.2793 77.8001 50.0793ZM77.1001 50.0793C77.1001 49.1793 77.3001 48.4793 77.8001 47.9793C78.2001 47.4793 78.8001 47.2793 79.5001 47.2793C80.0001 47.2793 80.4001 47.3793 80.7001 47.5793C81.1001 47.7793 81.4001 48.1793 81.5001 48.5793C81.7001 48.9793 81.8001 49.4793 81.8001 49.9793C81.8001 50.4793 81.7001 50.9793 81.5001 51.3793C81.3001 51.7793 81.0001 52.0793 80.6001 52.3793C80.2001 52.5793 79.8001 52.6793 79.4001 52.6793C78.9001 52.6793 78.5001 52.5793 78.1001 52.2793C77.7001 52.0793 77.4001 51.6793 77.3001 51.2793C77.2001 50.9793 77.1001 50.5793 77.1001 50.0793Z" fill="black"></path> <path d="M83.9002 49.8789H85.2002C85.6002 49.8789 85.9002 49.7789 86.1002 49.5789C86.3002 49.3789 86.4002 49.1789 86.4002 48.8789C86.4002 48.6789 86.3002 48.4789 86.2002 48.2789C86.1002 48.0789 86.0002 47.9789 85.8002 47.9789C85.7002 47.9789 85.5002 47.9789 85.2002 47.9789H83.9002V49.8789ZM83.2002 52.6789V47.3789H85.1002C85.4002 47.3789 85.7002 47.3789 85.9002 47.3789C86.1002 47.3789 86.4002 47.4789 86.5002 47.5789C86.7002 47.6789 86.8002 47.8789 86.9002 48.0789C87.0002 48.2789 87.1002 48.5789 87.1002 48.7789C87.1002 49.1789 87.0002 49.5789 86.7002 49.8789C86.4002 50.1789 85.9002 50.3789 85.2002 50.3789H83.9002V52.4789H83.2002V52.6789Z" fill="black"></path> <path d="M91.9002 50.7785L92.6002 50.9785C92.5002 51.5785 92.2002 51.9785 91.9002 52.2785C91.5002 52.5785 91.1002 52.7785 90.6002 52.7785C90.1002 52.7785 89.6002 52.6785 89.3002 52.4785C89.0002 52.2785 88.7002 51.8785 88.5002 51.4785C88.3002 51.0785 88.2002 50.5785 88.2002 50.0785C88.2002 49.5785 88.3002 49.0785 88.5002 48.6785C88.7002 48.2785 89.0002 47.9785 89.3002 47.7785C89.7002 47.5785 90.1002 47.4785 90.5002 47.4785C91.0002 47.4785 91.4002 47.5785 91.8002 47.8785C92.1002 48.1785 92.4002 48.4785 92.5002 48.9785L91.8002 49.1785C91.7002 48.7785 91.5002 48.4785 91.3002 48.3785C91.1002 48.1785 90.8002 48.0785 90.5002 48.0785C90.1002 48.0785 89.8002 48.1785 89.5002 48.3785C89.2002 48.5785 89.1002 48.8785 89.0002 49.1785C88.9002 49.4785 88.8002 49.8785 88.8002 50.1785C88.8002 50.5785 88.9002 50.9785 89.0002 51.3785C89.1002 51.6785 89.3002 51.9785 89.6002 52.0785C89.9002 52.2785 90.1002 52.2785 90.4002 52.2785C90.8002 52.2785 91.1002 52.1785 91.3002 51.9785C91.6002 51.5785 91.8002 51.2785 91.9002 50.7785Z" fill="black"></path> <path d="M93.9001 47.3789H94.6002V49.6789C94.9002 49.6789 95.1001 49.5789 95.2001 49.4789C95.3001 49.3789 95.5001 49.0789 95.7001 48.5789C95.8001 48.2789 96.0002 47.9789 96.0002 47.8789C96.1002 47.7789 96.2001 47.5789 96.4001 47.4789C96.6001 47.3789 96.8001 47.3789 96.9001 47.3789C97.2001 47.3789 97.3001 47.3789 97.3001 47.3789V47.9789H97.2001C97.1001 47.9789 97.1002 47.9789 97.1002 47.9789C96.9002 47.9789 96.7002 48.0789 96.6002 48.1789C96.5002 48.2789 96.4001 48.4789 96.2001 48.8789C96.0001 49.2789 95.9001 49.5789 95.8001 49.6789C95.7001 49.7789 95.5001 49.8789 95.4001 49.9789C95.7001 50.0789 96.0001 50.3789 96.4001 50.8789L97.4001 52.6789H96.6002L95.8001 51.2789C95.6001 50.8789 95.4001 50.5789 95.2001 50.4789C95.0001 50.3789 94.8002 50.2789 94.6002 50.2789V52.7789H93.9001V47.3789Z" fill="black"></path> <path d="M98.5002 47.3789H99.1002V51.5789L101.7 47.3789H102.4V52.6789H101.8V48.4789L99.1002 52.6789H98.5002V47.3789Z" fill="black"></path> <path d="M104 52.6789V47.3789H107.6V47.9789H104.7V49.6789H107.4V50.2789H104.7V52.0789H107.8V52.6789H104Z" fill="black"></path> <path d="M112 47.3789H115.1V52.6789H114.4V48.0789H112.6V50.7789C112.6 51.3789 112.6 51.7789 112.5 51.9789C112.5 52.2789 112.3 52.4789 112.2 52.5789C112 52.6789 111.8 52.7789 111.6 52.7789C111.5 52.7789 111.3 52.7789 111.1 52.6789L111.2 52.0789C111.3 52.0789 111.4 52.1789 111.5 52.1789C111.7 52.1789 111.8 52.0789 111.8 51.9789C111.9 51.8789 111.9 51.5789 111.9 51.1789V47.3789H112Z" fill="black"></path> <path d="M117.6 50.4789H119.3L118.8 48.9789C118.6 48.5789 118.5 48.1789 118.4 47.8789C118.3 48.1789 118.2 48.5789 118.1 48.8789L117.6 50.4789ZM116.2 52.6789L118.1 47.3789H118.8L120.8 52.6789H120L119.4 51.0789H117.3L116.8 52.6789H116.2Z" fill="black"></path> <path d="M121.9 52.6789V47.3789H122.6V49.5789H125.2V47.3789H125.9V52.6789H125.2V50.1789H122.6V52.6789H121.9Z" fill="black"></path> <path d="M130.3 47.9789H128.6V48.2789C128.6 48.6789 128.6 49.3789 128.5 50.0789C128.4 50.8789 128.3 51.4789 128.1 51.9789H130.4V47.9789H130.3ZM127.9 47.3789H130.9V51.9789H131.4V53.7789H130.8V52.6789H127.5V53.8789H126.9V52.0789H127.3C127.7 51.4789 127.9 50.1789 127.9 48.1789V47.3789Z" fill="black"></path> <path d="M132.7 47.3789H133.4V52.0789H135.1V47.3789H135.7V52.0789H137.4V47.3789H138V52.6789H132.7V47.3789Z" fill="black"></path> <path d="M140.5 50.4789H142.2L141.7 48.9789C141.5 48.5789 141.4 48.1789 141.3 47.8789C141.2 48.1789 141.1 48.5789 141 48.8789L140.5 50.4789ZM139.1 52.6789L141 47.3789H141.7L143.7 52.6789H142.9L142.3 51.0789H140.2L139.7 52.6789H139.1Z" fill="black"></path> <path d="M147 48.6789V51.4789C147.4 51.4789 147.8 51.2789 148 51.0789C148.2 50.8789 148.4 50.4789 148.4 50.0789C148.4 49.6789 148.3 49.3789 148 49.0789C147.8 48.7789 147.5 48.6789 147 48.6789ZM146.4 48.6789C146 48.6789 145.7 48.7789 145.4 49.0789C145.1 49.2789 145 49.6789 145 50.0789C145 50.4789 145.1 50.7789 145.4 51.0789C145.7 51.2789 146 51.4789 146.4 51.4789V48.6789ZM146.4 48.0789V47.3789H147V48.0789C147.6 48.0789 148.1 48.2789 148.5 48.6789C148.9 49.0789 149.1 49.4789 149.1 50.0789C149.1 50.5789 148.9 51.0789 148.6 51.4789C148.2 51.8789 147.7 52.0789 147.1 52.0789V52.7789H146.5V52.0789C145.9 52.0789 145.4 51.8789 145 51.4789C144.6 51.0789 144.4 50.6789 144.4 50.0789C144.4 49.4789 144.6 48.9789 145 48.6789C145.3 48.2789 145.8 48.0789 146.4 48.0789Z" fill="black"></path> <path d="M151.3 52.6789V47.9789H149.7V47.3789H153.6V47.9789H152V52.6789H151.3Z" fill="black"></path> <path d="M159.2 47.3789H159.9V52.6789H159.2V47.3789ZM155.5 52.0789H156.7C157.1 52.0789 157.4 51.9789 157.6 51.8789C157.8 51.7789 157.9 51.4789 157.9 51.1789C157.9 50.9789 157.8 50.7789 157.7 50.5789C157.6 50.4789 157.4 50.3789 157.3 50.2789C157.1 50.2789 156.8 50.1789 156.4 50.1789H155.5V52.0789ZM154.8 47.3789H155.5V49.5789H156.7C157.5 49.5789 158 49.7789 158.2 50.0789C158.4 50.3789 158.6 50.6789 158.6 51.0789C158.6 51.4789 158.5 51.8789 158.2 52.1789C157.9 52.4789 157.4 52.6789 156.7 52.6789H154.8V47.3789Z" fill="black"></path> </g> <defs> <clipPath id="clip0_38_3292"> <rect width="178.863" height="67.7577" fill="white" transform="translate(0 0.121094)"></rect> </clipPath> </defs> </svg> 