<svg width="206" height="11" viewBox="0 0 206 11" fill="none" xmlns="http://www.w3.org/2000/svg">
<path d="M193.274 4.4H201.402C201.812 4.4 201.976 4.31852 201.976 4.23704V2.03704C201.976 1.95556 201.812 1.87407 201.402 1.87407H193.849C193.685 1.87407 193.52 1.87407 193.438 1.87407C193.356 1.87407 193.274 1.95556 193.274 2.03704V4.4ZM189.334 1.62963C189.334 1.14074 189.662 0.733333 190.237 0.407407C190.811 0.162963 191.796 0 193.192 0H202.058C203.454 0 204.439 0.162963 205.096 0.407407C205.671 0.651852 205.999 1.05926 205.999 1.62963V4.64444C205.999 5.21481 205.671 5.62222 205.096 5.86667C204.521 6.11111 203.536 6.27407 202.058 6.27407H193.274V11H189.334V1.62963ZM181.206 9.12593C181.617 9.12593 181.781 9.04444 181.781 8.96296V0H185.721V9.37037C185.721 9.94074 185.393 10.3481 184.818 10.5926C184.244 10.837 183.258 11 181.781 11H172.914C171.519 11 170.534 10.837 169.959 10.5926C169.384 10.3481 169.056 9.94074 169.056 9.37037V0H172.996V8.96296C172.996 9.04444 173.078 9.04445 173.161 9.04445C173.243 9.04445 173.407 9.04445 173.571 9.04445H181.206V9.12593ZM161.01 9.12593C161.421 9.12593 161.585 9.04444 161.585 8.96296V2.03704C161.585 1.95556 161.421 1.87407 161.01 1.87407H153.457C153.293 1.87407 153.129 1.87407 153.047 1.87407C152.965 1.87407 152.883 1.95556 152.883 2.03704V8.96296C152.883 9.04444 152.965 9.04445 153.047 9.04445C153.129 9.04445 153.293 9.04445 153.457 9.04445H161.01V9.12593ZM148.942 1.62963C148.942 1.14074 149.271 0.733333 149.845 0.407407C150.42 0.162963 151.405 0 152.801 0H161.667C163.063 0 164.048 0.162963 164.705 0.407407C165.279 0.651852 165.608 1.05926 165.608 1.62963V9.37037C165.608 9.94074 165.279 10.3481 164.705 10.5926C164.13 10.837 163.145 11 161.667 11H152.801C151.405 11 150.42 10.837 149.845 10.5926C149.271 10.3481 148.942 9.94074 148.942 9.37037V1.62963ZM141.389 4.23704V2.03704C141.389 1.95556 141.225 1.87407 140.815 1.87407H133.262C132.851 1.87407 132.687 1.95556 132.687 2.03704V4.4H140.815C141.225 4.4 141.389 4.31852 141.389 4.23704ZM129.65 0.407407C130.224 0.162963 131.209 0 132.687 0H141.554C142.949 0 143.934 0.162963 144.591 0.407407C145.166 0.651852 145.494 1.05926 145.494 1.62963V4.64444C145.494 5.13333 145.248 5.45926 144.837 5.7037C144.427 5.94815 143.688 6.11111 142.703 6.19259L146.233 10.9185H142.128L138.598 6.19259H132.769V10.9185H128.747V1.62963C128.747 1.05926 128.993 0.733333 129.65 0.407407ZM121.194 9.12593V6.19259H117.417V4.4H125.134V9.37037C125.134 9.94074 124.806 10.3481 124.231 10.5926C123.657 10.837 122.671 11 121.194 11H112.327C110.932 11 109.946 10.837 109.372 10.5926C108.797 10.3481 108.469 9.94074 108.469 9.37037V1.62963C108.469 1.14074 108.797 0.733333 109.372 0.407407C109.946 0.162963 110.932 0 112.327 0H125.134V1.87407H112.984C112.82 1.87407 112.656 1.87407 112.574 1.87407C112.491 1.87407 112.409 1.95556 112.409 2.03704V8.96296C112.409 9.04444 112.491 9.04445 112.574 9.04445C112.656 9.04445 112.82 9.04445 112.984 9.04445H121.194V9.12593Z" fill="#120600"/>
<path d="M103.441 4.23704V2.03704C103.441 1.95556 103.277 1.87407 102.867 1.87407H95.3138C94.9033 1.87407 94.7391 1.95556 94.7391 2.03704V4.4H102.867C103.277 4.4 103.441 4.31852 103.441 4.23704ZM91.7015 0.407407C92.2762 0.162963 93.2614 0 94.7391 0H103.605C105.001 0 105.986 0.162963 106.561 0.407407C107.136 0.651852 107.464 1.05926 107.464 1.62963V4.64444C107.464 5.13333 107.218 5.45926 106.807 5.7037C106.397 5.94815 105.658 6.11111 104.673 6.19259L108.203 10.9185H104.098L100.568 6.19259H94.7391V10.9185H90.7985V1.62963C90.7985 1.05926 91.0448 0.733333 91.7015 0.407407ZM82.6709 9.12593C83.0814 9.12593 83.2456 9.04444 83.2456 8.96296V2.03704C83.2456 1.95556 83.0814 1.87407 82.6709 1.87407H75.1181C74.9539 1.87407 74.7897 1.87407 74.7076 1.95556C74.6255 1.95556 74.5434 2.03704 74.5434 2.03704V8.96296C74.5434 9.04444 74.6255 9.04445 74.7076 9.04445C74.7897 9.04445 74.9539 9.12593 75.1181 9.12593H82.6709ZM70.6028 1.62963C70.6028 1.14074 70.9312 0.733333 71.5058 0.407407C72.0805 0.162963 73.0657 0 74.4613 0H83.3277C84.7233 0 85.7085 0.162963 86.2832 0.407407C86.8578 0.651852 87.1862 1.05926 87.1862 1.62963V9.37037C87.1862 9.94074 86.8578 10.3481 86.2832 10.5926C85.7085 10.837 84.7233 11 83.3277 11H74.4613C73.0657 11 72.0805 10.837 71.5058 10.5926C70.9312 10.3481 70.6028 9.94074 70.6028 9.37037V1.62963ZM63.0499 4.23704V2.03704C63.0499 1.95556 62.8857 1.87407 62.4753 1.87407H54.9224C54.5119 1.87407 54.3477 1.95556 54.3477 2.03704V4.4H62.4753C62.8857 4.4 63.0499 4.31852 63.0499 4.23704ZM51.3102 0.407407C51.8848 0.162963 52.87 0 54.2656 0H63.132C64.5277 0 65.5128 0.162963 66.1696 0.407407C66.7443 0.651852 67.0726 1.05926 67.0726 1.62963V4.64444C67.0726 5.13333 66.8264 5.45926 66.4159 5.7037C66.0054 5.94815 65.2665 6.11111 64.2814 6.19259L67.8115 10.9185H63.7067L60.1766 6.19259H54.3477V10.9185H50.4071V1.62963C50.4071 1.05926 50.6534 0.733333 51.3102 0.407407ZM42.8542 4.23704V2.03704C42.8542 1.95556 42.6901 1.87407 42.2796 1.87407H34.7267C34.3162 1.87407 34.152 1.95556 34.152 2.03704V4.4H42.2796C42.6901 4.4 42.8542 4.31852 42.8542 4.23704ZM31.1145 0.407407C31.6892 0.162963 32.6743 0 34.07 0H42.9363C44.332 0 45.3171 0.162963 45.9739 0.407407C46.5486 0.651852 46.877 1.05926 46.877 1.62963V4.64444C46.877 5.13333 46.6307 5.45926 46.2202 5.7037C45.8097 5.94815 45.0708 6.11111 44.0857 6.19259L47.6158 10.9185H43.511L39.9809 6.19259H34.152V10.9185H30.2114V1.62963C30.2114 1.05926 30.4577 0.733333 31.1145 0.407407ZM22.7407 0H26.6813V11H22.7407V0ZM11.6577 1.87407V11H7.63495V1.87407H3.94062V11H0V0H15.4341C16.8297 0 17.8149 0.162963 18.4717 0.407407C19.0463 0.651852 19.3747 1.05926 19.3747 1.62963V11H15.352V2.03704C15.352 1.95556 15.2699 1.95556 15.1878 1.95556C15.1057 1.95556 14.9415 1.87407 14.7773 1.87407H11.6577Z" fill="#BF0902"/>
</svg>
