<svg width="142" height="37" viewBox="0 0 142 37" fill="none" xmlns="http://www.w3.org/2000/svg">
<path fill-rule="evenodd" clip-rule="evenodd" d="M21.4391 4.01477H5.3133V11.9598H21.5391L22.2741 11.8906L22.9859 11.687L23.6477 11.3528L24.2364 10.9071L24.7328 10.3539L25.1175 9.7238L25.3792 9.03227L25.5061 8.3023V7.56466L25.3599 6.83854L25.0791 6.1547L24.6943 5.53232L24.1825 4.99829L23.5823 4.56416L22.9128 4.24912L22.1971 4.06472L21.4583 4.01477H21.4391ZM5.33253 25.4909H1V0H20.9851L22.047 0.0499463L23.0936 0.24204L24.1056 0.568591L25.0675 1.02578L25.9602 1.6059L26.7644 2.29744L27.4723 3.09271L28.0803 3.97252L28.5535 4.92145L28.8998 5.92417L29.1115 6.96533L29.1807 8.0257L29.1115 9.08606L28.8998 10.1272L28.5535 11.1338L28.0803 12.0827L27.48 12.9625L26.7721 13.7539L25.9679 14.4493L25.0752 15.0294L24.1133 15.4866L23.1013 15.8132L22.0547 16.0014L20.9928 16.0552H5.3133V25.4909" fill="#272727"/>
<path fill-rule="evenodd" clip-rule="evenodd" d="M38.6349 4.01477V11.9598H54.8685L55.6072 11.8906L56.3191 11.687L56.9809 11.3528L57.5657 10.9071L58.0621 10.3539L58.4469 9.7238L58.7085 9.03227L58.8355 8.3023V7.56466L58.6893 6.83854L58.4122 6.1547L58.0082 5.53232L57.5003 4.99829L56.9001 4.56416L56.2306 4.24912L55.5111 4.06472L54.7723 4.01477H38.6349V4.01477ZM54.3067 0L55.361 0.0499463L56.3999 0.238195L57.4041 0.557077L58.3584 1.00657L59.2472 1.57901L60.0514 2.25903L60.7593 3.0274L61.3557 3.89183L61.8367 4.82925L62.1907 5.82046L62.4139 6.85393L62.4947 7.90275L62.4408 8.95542L62.2484 9.98889L61.9214 10.9916L61.4673 11.9406L60.8902 12.8242L60.2053 13.6233L59.4357 14.3264L58.5661 14.9219L57.6235 15.3983L56.6269 15.744L55.5957 15.9592L62.7101 25.4909H58.4045L51.3517 16.0552H38.6542V25.4909H34.3447V0H54.326" fill="#272727"/>
<path fill-rule="evenodd" clip-rule="evenodd" d="M68.9697 0H73.2792V25.4909H68.9697V0Z" fill="#272727"/>
<path fill-rule="evenodd" clip-rule="evenodd" d="M96.7803 4.01477H83.9443V21.1073H96.7803L97.9 21.0343L98.9966 20.8153L100.059 20.458L101.063 19.9624L101.994 19.34L102.837 18.6024L103.575 17.761L104.199 16.8313L104.695 15.8286L105.053 14.7682L105.272 13.6733L105.345 12.5553L105.272 11.4411L105.053 10.3423L104.695 9.28197L104.199 8.27925L103.575 7.34952L102.837 6.50815L101.994 5.77051L101.063 5.15195L100.059 4.65636L98.9966 4.29522L97.9 4.07623L96.7803 4.00323V4.01477ZM79.6387 0H97.0804L98.4386 0.103738L99.7777 0.353446L101.082 0.737635L102.34 1.26397L103.533 1.92094L104.649 2.68932L105.676 3.58064L106.604 4.57952L107.415 5.67062L108.108 6.82318L108.674 8.06026L109.101 9.35115L109.389 10.6804L109.535 12.0328V13.4235L109.389 14.7759L109.101 16.1052L108.674 17.396L108.112 18.637L107.419 19.7895L106.607 20.8806L105.68 21.8757L104.649 22.79L103.533 23.5584L102.34 24.2154L101.082 24.7379L99.7777 25.1221L98.4386 25.368L97.0804 25.4717H79.6387V0Z" fill="#272727"/>
<path fill-rule="evenodd" clip-rule="evenodd" d="M115.801 0H141V4.01477H120.11V10.0119H134.428V14.3033H120.11V21.1188H141V25.4909H115.801V0Z" fill="#272727"/>
<path d="M0.930664 32.0103C0.930664 31.5241 1.01668 31.0491 1.18872 30.5853C1.36076 30.1141 1.61134 29.6877 1.94046 29.3063C2.27706 28.9173 2.68472 28.6106 3.16344 28.3862C3.64216 28.1543 4.18446 28.0384 4.79034 28.0384C5.50842 28.0384 6.12926 28.203 6.65286 28.5321C7.17646 28.8537 7.56542 29.2689 7.81974 29.7775L6.83238 30.4395C6.68278 30.1178 6.49204 29.8635 6.26016 29.6765C6.03576 29.4895 5.78892 29.3586 5.51964 29.2838C5.25784 29.209 4.99978 29.1716 4.74546 29.1716C4.32658 29.1716 3.96006 29.2576 3.6459 29.4297C3.33174 29.5942 3.0662 29.8149 2.84928 30.0917C2.63984 30.3684 2.47902 30.6788 2.36682 31.0229C2.2621 31.367 2.20974 31.7111 2.20974 32.0552C2.20974 32.4366 2.27332 32.8069 2.40048 33.1659C2.52764 33.5175 2.70342 33.8317 2.92782 34.1084C3.1597 34.3777 3.43272 34.5909 3.74688 34.748C4.06104 34.905 4.40512 34.9836 4.77912 34.9836C5.03344 34.9836 5.29898 34.9387 5.57574 34.8489C5.8525 34.7592 6.10682 34.6208 6.3387 34.4338C6.57806 34.2393 6.76506 33.985 6.8997 33.6708L7.94316 34.2655C7.7786 34.6619 7.52054 34.9985 7.16898 35.2753C6.8249 35.5521 6.43594 35.7615 6.0021 35.9036C5.57574 36.0457 5.15312 36.1168 4.73424 36.1168C4.17324 36.1168 3.66086 36.0009 3.1971 35.769C2.73334 35.5296 2.33316 35.2155 1.99656 34.8265C1.65996 34.4301 1.39816 33.9887 1.21116 33.5025C1.02416 33.0089 0.930664 32.5114 0.930664 32.0103Z" fill="#272727"/>
<path d="M12.3593 31.2473C11.8806 31.2548 11.4542 31.3633 11.0802 31.5727C10.7137 31.7821 10.4519 32.0776 10.2948 32.4591V36.0495H9.06061V30.1814H10.205V31.4942C10.407 31.0902 10.6725 30.7686 11.0017 30.5292C11.3308 30.2824 11.6786 30.1478 12.0451 30.1253C12.1199 30.1253 12.1798 30.1253 12.2246 30.1253C12.277 30.1253 12.3219 30.1291 12.3593 30.1365V31.2473Z" fill="#272727"/>
<path d="M15.9189 36.1617C15.4626 36.1617 15.0475 36.0831 14.6735 35.9261C14.307 35.7615 13.9891 35.5408 13.7198 35.2641C13.4505 34.9798 13.2411 34.6582 13.0915 34.2992C12.9494 33.9326 12.8783 33.5437 12.8783 33.1323C12.8783 32.5788 13.0055 32.0739 13.2598 31.6176C13.5141 31.1538 13.8694 30.7836 14.3257 30.5068C14.782 30.2226 15.3168 30.0804 15.9301 30.0804C16.5435 30.0804 17.0708 30.2226 17.5122 30.5068C17.961 30.7836 18.3088 31.1501 18.5556 31.6064C18.8025 32.0626 18.9259 32.5526 18.9259 33.0762C18.9259 33.1659 18.9221 33.252 18.9147 33.3342C18.9072 33.409 18.8997 33.4726 18.8922 33.525H14.191C14.2135 33.8691 14.307 34.172 14.4715 34.4338C14.6436 34.6881 14.8605 34.8901 15.1223 35.0397C15.3841 35.1818 15.6646 35.2529 15.9638 35.2529C16.2929 35.2529 16.6033 35.1706 16.8951 35.006C17.1943 34.8415 17.3962 34.6245 17.5009 34.3553L18.5556 34.6582C18.4285 34.9424 18.234 35.2005 17.9722 35.4324C17.7179 35.6568 17.4149 35.8363 17.0634 35.9709C16.7118 36.0981 16.3303 36.1617 15.9189 36.1617ZM14.1574 32.7059H17.7029C17.6805 32.3693 17.5832 32.0739 17.4112 31.8195C17.2466 31.5577 17.0334 31.3558 16.7716 31.2137C16.5173 31.0641 16.2331 30.9893 15.9189 30.9893C15.6122 30.9893 15.328 31.0641 15.0662 31.2137C14.8119 31.3558 14.6024 31.5577 14.4379 31.8195C14.2733 32.0739 14.1798 32.3693 14.1574 32.7059Z" fill="#272727"/>
<path d="M19.6184 34.3328C19.6184 33.9588 19.7232 33.6334 19.9326 33.3567C20.1495 33.0724 20.445 32.8555 20.819 32.7059C21.193 32.5488 21.6268 32.4703 22.1205 32.4703C22.3823 32.4703 22.6478 32.489 22.9171 32.5264C23.1939 32.5638 23.437 32.6236 23.6464 32.7059V32.3357C23.6464 31.9243 23.523 31.6026 23.2762 31.3707C23.0293 31.1389 22.674 31.0229 22.2103 31.0229C21.8811 31.0229 21.5707 31.0828 21.279 31.2024C20.9873 31.3146 20.6769 31.4755 20.3477 31.6849L19.9326 30.8546C20.3216 30.5928 20.7105 30.3983 21.0995 30.2712C21.4959 30.144 21.9111 30.0804 22.3449 30.0804C23.1303 30.0804 23.7474 30.2899 24.1962 30.7088C24.6525 31.1202 24.8806 31.7073 24.8806 32.4703V34.6582C24.8806 34.8003 24.9031 34.9013 24.9479 34.9611C25.0003 35.021 25.0863 35.0546 25.206 35.0621V36.0495C25.0938 36.0719 24.9928 36.0869 24.9031 36.0944C24.8133 36.1018 24.7385 36.1056 24.6787 36.1056C24.4169 36.1056 24.2186 36.042 24.084 35.9148C23.9494 35.7877 23.8708 35.6381 23.8484 35.466L23.8147 35.1294C23.5604 35.4586 23.235 35.7129 22.8386 35.8924C22.4421 36.0719 22.042 36.1617 21.638 36.1617C21.2491 36.1617 20.9013 36.0831 20.5946 35.9261C20.2879 35.7615 20.0485 35.5408 19.8765 35.2641C19.7045 34.9873 19.6184 34.6769 19.6184 34.3328ZM23.3547 34.6919C23.4445 34.5946 23.5155 34.4974 23.5679 34.4001C23.6202 34.3029 23.6464 34.2169 23.6464 34.1421V33.4689C23.437 33.3866 23.2163 33.3268 22.9844 33.2894C22.7526 33.2445 22.5244 33.222 22.3 33.222C21.8512 33.222 21.4847 33.3118 21.2005 33.4913C20.9237 33.6708 20.7853 33.9177 20.7853 34.2318C20.7853 34.4039 20.8302 34.5684 20.92 34.7255C21.0172 34.8826 21.1518 35.0098 21.3239 35.107C21.5034 35.2042 21.7241 35.2529 21.9859 35.2529C22.2551 35.2529 22.5132 35.2005 22.76 35.0958C23.0069 34.9911 23.2051 34.8564 23.3547 34.6919Z" fill="#272727"/>
<path d="M29.7114 35.7465C29.6066 35.7989 29.4757 35.855 29.3187 35.9148C29.1616 35.9747 28.9821 36.027 28.7801 36.0719C28.5856 36.1168 28.3837 36.1392 28.1742 36.1392C27.9199 36.1392 27.6843 36.0944 27.4674 36.0046C27.2504 35.9148 27.0747 35.7727 26.94 35.5782C26.8129 35.3763 26.7493 35.1182 26.7493 34.8041V31.1351H25.9751V30.1814H26.7493V28.2516H27.9835V30.1814H29.2626V31.1351H27.9835V34.4114C27.9984 34.6133 28.062 34.7629 28.1742 34.8602C28.2939 34.9574 28.4398 35.006 28.6118 35.006C28.7838 35.006 28.9484 34.9761 29.1055 34.9163C29.2626 34.8564 29.3785 34.8078 29.4533 34.7704L29.7114 35.7465Z" fill="#272727"/>
<path d="M30.6784 36.0495V30.1814H31.9126V36.0495H30.6784ZM30.6784 29.2165V27.8589H31.9126V29.2165H30.6784Z" fill="#272727"/>
<path d="M35.146 36.0495L32.9133 30.1814H34.1923L35.8641 34.905L37.5359 30.1814H38.7252L36.4925 36.0495H35.146Z" fill="#272727"/>
<path d="M42.1851 36.1617C41.7288 36.1617 41.3137 36.0831 40.9397 35.9261C40.5732 35.7615 40.2553 35.5408 39.986 35.2641C39.7167 34.9798 39.5073 34.6582 39.3577 34.2992C39.2155 33.9326 39.1445 33.5437 39.1445 33.1323C39.1445 32.5788 39.2717 32.0739 39.526 31.6176C39.7803 31.1538 40.1356 30.7836 40.5919 30.5068C41.0481 30.2226 41.583 30.0804 42.1963 30.0804C42.8097 30.0804 43.337 30.2226 43.7784 30.5068C44.2272 30.7836 44.575 31.1501 44.8218 31.6064C45.0687 32.0626 45.1921 32.5526 45.1921 33.0762C45.1921 33.1659 45.1883 33.252 45.1809 33.3342C45.1734 33.409 45.1659 33.4726 45.1584 33.525H40.4572C40.4797 33.8691 40.5732 34.172 40.7377 34.4338C40.9098 34.6881 41.1267 34.8901 41.3885 35.0397C41.6503 35.1818 41.9308 35.2529 42.23 35.2529C42.5591 35.2529 42.8695 35.1706 43.1613 35.006C43.4605 34.8415 43.6624 34.6245 43.7671 34.3553L44.8218 34.6582C44.6947 34.9424 44.5002 35.2005 44.2384 35.4324C43.984 35.6568 43.6811 35.8363 43.3296 35.9709C42.978 36.0981 42.5965 36.1617 42.1851 36.1617ZM40.4236 32.7059H43.9691C43.9466 32.3693 43.8494 32.0739 43.6774 31.8195C43.5128 31.5577 43.2996 31.3558 43.0378 31.2137C42.7835 31.0641 42.4993 30.9893 42.1851 30.9893C41.8784 30.9893 41.5942 31.0641 41.3324 31.2137C41.0781 31.3558 40.8686 31.5577 40.7041 31.8195C40.5395 32.0739 40.446 32.3693 40.4236 32.7059Z" fill="#272727"/>
<path d="M49.3524 36.0495V28.0833H52.696C53.055 28.0833 53.3841 28.1581 53.6833 28.3077C53.9825 28.4573 54.2443 28.6555 54.4687 28.9023C54.6931 29.1492 54.8652 29.4259 54.9849 29.7326C55.1045 30.0393 55.1644 30.3535 55.1644 30.6751C55.1644 31.1164 55.0634 31.539 54.8614 31.943C54.667 32.3394 54.3865 32.661 54.0199 32.9079C53.6609 33.1547 53.242 33.2781 52.7633 33.2781H50.6091V36.0495H49.3524ZM50.6091 32.1674H52.6847C52.9241 32.1674 53.1336 32.1038 53.3131 31.9766C53.4926 31.842 53.631 31.6625 53.7282 31.4381C53.8329 31.2137 53.8853 30.9593 53.8853 30.6751C53.8853 30.3834 53.8255 30.1253 53.7058 29.9009C53.5861 29.6765 53.429 29.5045 53.2345 29.3848C53.0475 29.2576 52.8418 29.1941 52.6174 29.1941H50.6091V32.1674Z" fill="#272727"/>
<path d="M59.5968 31.2473C59.1181 31.2548 58.6917 31.3633 58.3177 31.5727C57.9512 31.7821 57.6894 32.0776 57.5323 32.4591V36.0495H56.2981V30.1814H57.4426V31.4942C57.6445 31.0902 57.9101 30.7686 58.2392 30.5292C58.5683 30.2824 58.9161 30.1478 59.2826 30.1253C59.3574 30.1253 59.4173 30.1253 59.4622 30.1253C59.5145 30.1253 59.5594 30.1291 59.5968 30.1365V31.2473Z" fill="#272727"/>
<path d="M63.134 36.1617C62.6702 36.1617 62.2551 36.0831 61.8886 35.9261C61.522 35.7615 61.2041 35.5371 60.9349 35.2529C60.6731 34.9686 60.4711 34.647 60.329 34.2879C60.1869 33.9214 60.1158 33.5325 60.1158 33.1211C60.1158 32.7097 60.1869 32.3207 60.329 31.9542C60.4711 31.5877 60.6731 31.266 60.9349 30.9893C61.2041 30.705 61.522 30.4844 61.8886 30.3273C62.2626 30.1627 62.6777 30.0804 63.134 30.0804C63.5903 30.0804 64.0017 30.1627 64.3682 30.3273C64.7422 30.4844 65.0601 30.705 65.3219 30.9893C65.5912 31.266 65.7969 31.5877 65.939 31.9542C66.0811 32.3207 66.1522 32.7097 66.1522 33.1211C66.1522 33.5325 66.0811 33.9214 65.939 34.2879C65.7969 34.647 65.5912 34.9686 65.3219 35.2529C65.0601 35.5371 64.7422 35.7615 64.3682 35.9261C64.0017 36.0831 63.5903 36.1617 63.134 36.1617ZM61.3837 33.1323C61.3837 33.5063 61.4622 33.8429 61.6193 34.1421C61.7764 34.4413 61.9858 34.6769 62.2476 34.8489C62.5094 35.021 62.8049 35.107 63.134 35.107C63.4556 35.107 63.7473 35.021 64.0091 34.8489C64.2784 34.6694 64.4916 34.4301 64.6487 34.1309C64.8058 33.8242 64.8843 33.4876 64.8843 33.1211C64.8843 32.7471 64.8058 32.4105 64.6487 32.1113C64.4916 31.8121 64.2784 31.5764 64.0091 31.4044C63.7473 31.2249 63.4556 31.1351 63.134 31.1351C62.8049 31.1351 62.5094 31.2249 62.2476 31.4044C61.9858 31.5839 61.7764 31.8233 61.6193 32.1225C61.4622 32.4142 61.3837 32.7508 61.3837 33.1323Z" fill="#272727"/>
<path d="M66.9888 33.1211C66.9888 32.5601 67.101 32.0514 67.3254 31.5951C67.5572 31.1314 67.8714 30.7649 68.2678 30.4956C68.6643 30.2188 69.1206 30.0804 69.6367 30.0804C70.0855 30.0804 70.4894 30.1964 70.8484 30.4283C71.215 30.6601 71.4992 30.9481 71.7012 31.2922V27.8589H72.9354V34.6582C72.9354 34.8003 72.9615 34.9013 73.0139 34.9611C73.0663 35.021 73.1523 35.0546 73.272 35.0621V36.0495C73.0401 36.0869 72.8606 36.1056 72.7334 36.1056C72.5015 36.1056 72.3033 36.0383 72.1387 35.9036C71.9817 35.769 71.8994 35.6082 71.8919 35.4212L71.8807 34.9836C71.6563 35.3576 71.3533 35.6493 70.9719 35.8587C70.5904 36.0607 70.1939 36.1617 69.7825 36.1617C69.3786 36.1617 69.0046 36.0831 68.6605 35.9261C68.3239 35.769 68.0285 35.5483 67.7742 35.2641C67.5273 34.9798 67.3328 34.6545 67.1907 34.2879C67.0561 33.9214 66.9888 33.5325 66.9888 33.1211ZM71.7012 33.9401V32.403C71.6189 32.1636 71.4842 31.9504 71.2972 31.7634C71.1177 31.569 70.912 31.4156 70.6801 31.3034C70.4557 31.1912 70.2313 31.1351 70.0069 31.1351C69.7451 31.1351 69.5058 31.1912 69.2889 31.3034C69.0794 31.4156 68.8962 31.5652 68.7391 31.7522C68.5895 31.9392 68.4735 32.1524 68.3913 32.3918C68.309 32.6311 68.2678 32.8817 68.2678 33.1435C68.2678 33.4128 68.3127 33.6671 68.4025 33.9065C68.4922 34.1383 68.6194 34.3478 68.784 34.5348C68.956 34.7143 69.1505 34.8564 69.3674 34.9611C69.5918 35.0584 69.8349 35.107 70.0967 35.107C70.2613 35.107 70.4258 35.0771 70.5904 35.0172C70.7624 34.9574 70.9232 34.8751 71.0728 34.7704C71.2299 34.6657 71.3608 34.5423 71.4655 34.4001C71.5777 34.258 71.6563 34.1047 71.7012 33.9401Z" fill="#272727"/>
<path d="M74.5591 33.7718V30.1814H75.7933V33.525C75.7933 34.0486 75.8868 34.445 76.0738 34.7143C76.2683 34.9761 76.5488 35.107 76.9153 35.107C77.1472 35.107 77.3716 35.0584 77.5885 34.9611C77.8129 34.8639 78.0149 34.7218 78.1944 34.5348C78.3814 34.3403 78.531 34.1084 78.6432 33.8391V30.1814H79.8774V34.6582C79.8774 34.8003 79.9036 34.9013 79.9559 34.9611C80.0083 35.021 80.0943 35.0546 80.214 35.0621V36.0495C80.0868 36.0719 79.9821 36.0869 79.8998 36.0944C79.8175 36.1018 79.739 36.1056 79.6642 36.1056C79.4398 36.1056 79.2528 36.0457 79.1032 35.9261C78.9536 35.7989 78.8676 35.6381 78.8451 35.4436L78.8227 34.8602C78.5609 35.2865 78.2206 35.6119 77.8017 35.8363C77.3828 36.0532 76.9228 36.1617 76.4216 36.1617C75.8083 36.1617 75.3445 35.9597 75.0303 35.5558C74.7162 35.1519 74.5591 34.5572 74.5591 33.7718Z" fill="#272727"/>
<path d="M84.2237 36.1617C83.7675 36.1617 83.3523 36.0831 82.9783 35.9261C82.6118 35.7615 82.2939 35.5371 82.0246 35.2529C81.7553 34.9686 81.5459 34.6432 81.3963 34.2767C81.2542 33.9102 81.1831 33.5212 81.1831 33.1098C81.1831 32.5563 81.3065 32.0514 81.5534 31.5951C81.8077 31.1389 82.1593 30.7723 82.6081 30.4956C83.0643 30.2188 83.6029 30.0804 84.2237 30.0804C84.8221 30.0804 85.342 30.2151 85.7833 30.4844C86.2321 30.7462 86.5612 31.0977 86.7707 31.539L85.5701 31.9205C85.4355 31.6737 85.2448 31.4829 84.9979 31.3483C84.7586 31.2062 84.493 31.1351 84.2013 31.1351C83.8722 31.1351 83.573 31.2211 83.3037 31.3932C83.0419 31.5577 82.8325 31.7896 82.6754 32.0888C82.5258 32.3805 82.451 32.7209 82.451 33.1098C82.451 33.4838 82.5295 33.8242 82.6866 34.1309C82.8437 34.4301 83.0531 34.6694 83.3149 34.8489C83.5842 35.021 83.8834 35.107 84.2125 35.107C84.4145 35.107 84.609 35.0733 84.796 35.006C84.9904 34.9312 85.1587 34.834 85.3008 34.7143C85.443 34.5871 85.544 34.4488 85.6038 34.2992L86.8156 34.6582C86.6884 34.9499 86.4977 35.208 86.2433 35.4324C85.9965 35.6568 85.701 35.8363 85.357 35.9709C85.0204 36.0981 84.6426 36.1617 84.2237 36.1617Z" fill="#272727"/>
<path d="M91.2092 35.7465C91.1045 35.7989 90.9736 35.855 90.8165 35.9148C90.6594 35.9747 90.4799 36.027 90.278 36.0719C90.0835 36.1168 89.8815 36.1392 89.6721 36.1392C89.4178 36.1392 89.1822 36.0944 88.9652 36.0046C88.7483 35.9148 88.5725 35.7727 88.4379 35.5782C88.3107 35.3763 88.2471 35.1182 88.2471 34.8041V31.1351H87.473V30.1814H88.2471V28.2516H89.4813V30.1814H90.7604V31.1351H89.4813V34.4114C89.4963 34.6133 89.5599 34.7629 89.6721 34.8602C89.7918 34.9574 89.9376 35.006 90.1097 35.006C90.2817 35.006 90.4463 34.9761 90.6033 34.9163C90.7604 34.8564 90.8764 34.8078 90.9512 34.7704L91.2092 35.7465Z" fill="#272727"/>
<path d="M92.1763 36.0495V30.1814H93.4105V36.0495H92.1763ZM92.1763 29.2165V27.8589H93.4105V29.2165H92.1763Z" fill="#272727"/>
<path d="M97.6425 36.1617C97.1787 36.1617 96.7636 36.0831 96.3971 35.9261C96.0306 35.7615 95.7127 35.5371 95.4434 35.2529C95.1816 34.9686 94.9796 34.647 94.8375 34.2879C94.6954 33.9214 94.6243 33.5325 94.6243 33.1211C94.6243 32.7097 94.6954 32.3207 94.8375 31.9542C94.9796 31.5877 95.1816 31.266 95.4434 30.9893C95.7127 30.705 96.0306 30.4844 96.3971 30.3273C96.7711 30.1627 97.1862 30.0804 97.6425 30.0804C98.0988 30.0804 98.5102 30.1627 98.8767 30.3273C99.2507 30.4844 99.5686 30.705 99.8304 30.9893C100.1 31.266 100.305 31.5877 100.448 31.9542C100.59 32.3207 100.661 32.7097 100.661 33.1211C100.661 33.5325 100.59 33.9214 100.448 34.2879C100.305 34.647 100.1 34.9686 99.8304 35.2529C99.5686 35.5371 99.2507 35.7615 98.8767 35.9261C98.5102 36.0831 98.0988 36.1617 97.6425 36.1617ZM95.8922 33.1323C95.8922 33.5063 95.9707 33.8429 96.1278 34.1421C96.2849 34.4413 96.4943 34.6769 96.7561 34.8489C97.0179 35.021 97.3134 35.107 97.6425 35.107C97.9641 35.107 98.2559 35.021 98.5177 34.8489C98.7869 34.6694 99.0001 34.4301 99.1572 34.1309C99.3143 33.8242 99.3928 33.4876 99.3928 33.1211C99.3928 32.7471 99.3143 32.4105 99.1572 32.1113C99.0001 31.8121 98.7869 31.5764 98.5177 31.4044C98.2559 31.2249 97.9641 31.1351 97.6425 31.1351C97.3134 31.1351 97.0179 31.2249 96.7561 31.4044C96.4943 31.5839 96.2849 31.8233 96.1278 32.1225C95.9707 32.4142 95.8922 32.7508 95.8922 33.1323Z" fill="#272727"/>
<path d="M107.13 36.0495H105.896V32.762C105.896 32.216 105.806 31.8158 105.626 31.5615C105.454 31.3072 105.196 31.18 104.852 31.18C104.613 31.18 104.373 31.2398 104.134 31.3595C103.902 31.4792 103.693 31.6438 103.506 31.8532C103.319 32.0552 103.184 32.2908 103.102 32.5601V36.0495H101.868V30.1814H102.99V31.3595C103.139 31.0977 103.334 30.8733 103.573 30.6863C103.82 30.4918 104.097 30.3422 104.403 30.2375C104.71 30.1328 105.035 30.0804 105.379 30.0804C105.731 30.0804 106.019 30.144 106.243 30.2712C106.475 30.3983 106.655 30.5741 106.782 30.7985C106.917 31.0154 107.006 31.2698 107.051 31.5615C107.104 31.8457 107.13 32.1487 107.13 32.4703V36.0495Z" fill="#272727"/>
<path d="M115.037 36.1056C114.401 36.1056 113.863 35.9971 113.421 35.7802C112.987 35.5633 112.636 35.2678 112.367 34.8938C112.105 34.5198 111.91 34.0935 111.783 33.6147C111.664 33.136 111.604 32.6386 111.604 32.1225V28.0833H112.86V32.1225C112.86 32.489 112.898 32.8443 112.973 33.1884C113.047 33.525 113.167 33.8279 113.332 34.0972C113.496 34.3665 113.717 34.5797 113.994 34.7367C114.278 34.8938 114.626 34.9724 115.037 34.9724C115.456 34.9724 115.804 34.8938 116.08 34.7367C116.365 34.5722 116.585 34.3553 116.742 34.086C116.907 33.8092 117.027 33.5025 117.101 33.1659C117.176 32.8293 117.214 32.4815 117.214 32.1225V28.0833H118.482V32.1225C118.482 32.6685 118.414 33.1846 118.28 33.6708C118.152 34.1496 117.95 34.5722 117.674 34.9387C117.404 35.2977 117.053 35.582 116.619 35.7914C116.185 36.0009 115.658 36.1056 115.037 36.1056Z" fill="#272727"/>
<path d="M125.271 36.0495H124.037V32.762C124.037 32.216 123.948 31.8158 123.768 31.5615C123.596 31.3072 123.338 31.18 122.994 31.18C122.754 31.18 122.515 31.2398 122.276 31.3595C122.044 31.4792 121.834 31.6438 121.647 31.8532C121.46 32.0552 121.326 32.2908 121.244 32.5601V36.0495H120.009V30.1814H121.131V31.3595C121.281 31.0977 121.475 30.8733 121.715 30.6863C121.962 30.4918 122.238 30.3422 122.545 30.2375C122.852 30.1328 123.177 30.0804 123.521 30.0804C123.873 30.0804 124.161 30.144 124.385 30.2712C124.617 30.3983 124.797 30.5741 124.924 30.7985C125.058 31.0154 125.148 31.2698 125.193 31.5615C125.245 31.8457 125.271 32.1487 125.271 32.4703V36.0495Z" fill="#272727"/>
<path d="M126.816 36.0495V30.1814H128.05V36.0495H126.816ZM126.816 29.2165V27.8589H128.05V29.2165H126.816Z" fill="#272727"/>
<path d="M132.283 36.1617C131.819 36.1617 131.404 36.0831 131.037 35.9261C130.671 35.7615 130.353 35.5371 130.083 35.2529C129.822 34.9686 129.62 34.647 129.478 34.2879C129.335 33.9214 129.264 33.5325 129.264 33.1211C129.264 32.7097 129.335 32.3207 129.478 31.9542C129.62 31.5877 129.822 31.266 130.083 30.9893C130.353 30.705 130.671 30.4844 131.037 30.3273C131.411 30.1627 131.826 30.0804 132.283 30.0804C132.739 30.0804 133.15 30.1627 133.517 30.3273C133.891 30.4844 134.209 30.705 134.47 30.9893C134.74 31.266 134.945 31.5877 135.087 31.9542C135.23 32.3207 135.301 32.7097 135.301 33.1211C135.301 33.5325 135.23 33.9214 135.087 34.2879C134.945 34.647 134.74 34.9686 134.47 35.2529C134.209 35.5371 133.891 35.7615 133.517 35.9261C133.15 36.0831 132.739 36.1617 132.283 36.1617ZM130.532 33.1323C130.532 33.5063 130.611 33.8429 130.768 34.1421C130.925 34.4413 131.134 34.6769 131.396 34.8489C131.658 35.021 131.953 35.107 132.283 35.107C132.604 35.107 132.896 35.021 133.158 34.8489C133.427 34.6694 133.64 34.4301 133.797 34.1309C133.954 33.8242 134.033 33.4876 134.033 33.1211C134.033 32.7471 133.954 32.4105 133.797 32.1113C133.64 31.8121 133.427 31.5764 133.158 31.4044C132.896 31.2249 132.604 31.1351 132.283 31.1351C131.953 31.1351 131.658 31.2249 131.396 31.4044C131.134 31.5839 130.925 31.8233 130.768 32.1225C130.611 32.4142 130.532 32.7508 130.532 33.1323Z" fill="#272727"/>
<path d="M141.77 36.0495H140.535V32.762C140.535 32.216 140.446 31.8158 140.266 31.5615C140.094 31.3072 139.836 31.18 139.492 31.18C139.253 31.18 139.013 31.2398 138.774 31.3595C138.542 31.4792 138.333 31.6438 138.146 31.8532C137.959 32.0552 137.824 32.2908 137.742 32.5601V36.0495H136.508V30.1814H137.63V31.3595C137.779 31.0977 137.974 30.8733 138.213 30.6863C138.46 30.4918 138.737 30.3422 139.043 30.2375C139.35 30.1328 139.675 30.0804 140.019 30.0804C140.371 30.0804 140.659 30.144 140.883 30.2712C141.115 30.3983 141.295 30.5741 141.422 30.7985C141.557 31.0154 141.646 31.2698 141.691 31.5615C141.744 31.8457 141.77 32.1487 141.77 32.4703V36.0495Z" fill="#272727"/>
</svg>
